<?xml version="1.0" encoding="UTF-8"?>
<svg version="1.1" xmlns="http://www.w3.org/2000/svg" width="200" height="200">
<path d="M0 0 C1.28293945 -0.04350586 1.28293945 -0.04350586 2.59179688 -0.08789062 C6.7276197 -0.12953718 9.09089321 -0.03443565 12.73046875 2.08203125 C14.6875 4.3125 14.6875 4.3125 15.6875 8.3125 C27.5675 8.3125 39.4475 8.3125 51.6875 8.3125 C52.3475 6.6625 53.0075 5.0125 53.6875 3.3125 C55.5220761 1.18923426 56.92206864 0.43020137 59.69433594 0.00390625 C62.15840552 -0.16553082 64.59280467 -0.19502956 67.0625 -0.1875 C67.90039062 -0.21585938 68.73828125 -0.24421875 69.6015625 -0.2734375 C73.92109865 -0.28702095 76.80414936 -0.06004515 80.2265625 2.71875 C83.70554798 6.38549025 83.70554798 6.38549025 83.64453125 9.51953125 C83.59683594 10.37933594 83.54914063 11.23914063 83.5 12.125 C83.43826868 16.8988888 84.30352932 18.82900077 87.6875 22.3125 C89.3193267 25.73760622 89.93732576 28.60445389 90.125 32.375 C90.59780783 38.57956586 92.11135645 44.31131492 93.6875 50.3125 C99.20548639 72.35947731 99.20548639 72.35947731 94.875 80.4375 C92.57727716 83.4573643 91.05748022 85.06240668 87.26953125 85.75390625 C82.32866237 85.9699386 78.59319876 85.90836228 74.625 82.75 C69.57798401 77.67182959 65.82321094 71.41920485 62.04614258 65.37304688 C61.3736145 64.35307617 61.3736145 64.35307617 60.6875 63.3125 C60.38319565 62.73640991 60.0788913 62.16031982 59.7653656 61.56677246 C58.0877502 58.7155177 56.82256466 56.71295798 53.62431335 55.58459473 C51.0624182 55.21818014 48.58378342 55.08076157 45.99609375 55.03125 C45.05500259 55.00083618 44.11391144 54.97042236 43.14430237 54.93908691 C41.15345867 54.89058022 39.1620588 54.8615233 37.1706543 54.85058594 C34.15019168 54.81281502 31.15412375 54.64761691 28.13867188 54.4765625 C18.32296485 54.04017278 18.32296485 54.04017278 9.63848877 57.9296875 C6.01353875 61.90263564 3.43126739 66.35373449 0.93753052 71.0925293 C-2.01022884 76.32755303 -5.96285027 82.45935348 -11.3125 85.3125 C-15.09048613 85.91263395 -18.54052119 85.97614139 -22.3125 85.3125 C-25.76817035 82.77364015 -27.69167795 80.23585187 -29.3125 76.3125 C-30.23076995 67.9084551 -28.72116328 59.85537391 -26.875 51.6875 C-26.64490234 50.61371094 -26.41480469 49.53992188 -26.17773438 48.43359375 C-24.48714774 40.66179548 -24.48714774 40.66179548 -23.3125 38.3125 C-23.18321092 36.60588411 -23.08333102 34.89697636 -23 33.1875 C-22.44809216 26.40437464 -20.02427831 21.88016746 -16.3125 16.3125 C-16.25820562 14.22359611 -16.25820562 14.22359611 -16.5 12 C-16.59928435 8.41992305 -16.24061787 6.58564193 -13.9375 3.8125 C-9.46372158 -0.44824135 -5.92016502 0.06602415 0 0 Z M-5.3125 10.3125 C-1.3125 11.3125 -1.3125 11.3125 -1.3125 11.3125 Z M1.6875 10.3125 C5.6875 11.3125 5.6875 11.3125 5.6875 11.3125 Z M61.6875 10.3125 C65.6875 11.3125 65.6875 11.3125 65.6875 11.3125 Z M68.6875 10.3125 C72.6875 11.3125 72.6875 11.3125 72.6875 11.3125 Z M64.4375 19.4375 C62.48140313 21.20397556 62.48140313 21.20397556 62.1875 23.8125 C62.4924037 26.41198619 62.4924037 26.41198619 64.375 28.25 C66.68449948 29.58029486 66.68449948 29.58029486 69.375 28.8125 C71.88775401 27.5044108 71.88775401 27.5044108 72.625 24.875 C72.93912602 22.06721394 72.93912602 22.06721394 70.6875 19.3125 C68.00189956 18.05921979 67.1120581 18.10022095 64.4375 19.4375 Z M-4.3125 20.3125 C-4.3125 22.9525 -4.3125 25.5925 -4.3125 28.3125 C-7.2825 28.3125 -10.2525 28.3125 -13.3125 28.3125 C-13.3125 31.2825 -13.3125 34.2525 -13.3125 37.3125 C-10.3425 37.3125 -7.3725 37.3125 -4.3125 37.3125 C-4.3125 40.2825 -4.3125 43.2525 -4.3125 46.3125 C-1.3425 46.3125 1.6275 46.3125 4.6875 46.3125 C4.6875 43.3425 4.6875 40.3725 4.6875 37.3125 C7.3275 37.3125 9.9675 37.3125 12.6875 37.3125 C12.6875 34.3425 12.6875 31.3725 12.6875 28.3125 C10.0475 28.3125 7.4075 28.3125 4.6875 28.3125 C4.6875 25.6725 4.6875 23.0325 4.6875 20.3125 C1.7175 20.3125 -1.2525 20.3125 -4.3125 20.3125 Z M20.6875 24.3125 C21.6875 26.3125 21.6875 26.3125 21.6875 26.3125 Z M45.6875 24.3125 C46.6875 26.3125 46.6875 26.3125 46.6875 26.3125 Z M44.6875 27.3125 C45.6875 31.3125 45.6875 31.3125 45.6875 31.3125 Z M21.6875 28.3125 C21.6875 31.6125 21.6875 34.9125 21.6875 38.3125 C22.0175 38.3125 22.3475 38.3125 22.6875 38.3125 C22.6875 35.0125 22.6875 31.7125 22.6875 28.3125 C22.3575 28.3125 22.0275 28.3125 21.6875 28.3125 Z M53.75 30.5625 C52.44246398 33.19117962 52.44246398 33.19117962 53.1875 35.5625 C54.6129644 37.48952205 54.6129644 37.48952205 57.0625 38.3125 C59.85496056 38.59347119 59.85496056 38.59347119 62 36.375 C62.556875 35.694375 63.11375 35.01375 63.6875 34.3125 C62.59965032 31.06266865 62.59965032 31.06266865 60.6875 28.3125 C57.13049664 27.75086789 56.15652442 27.76782648 53.75 30.5625 Z M73.6875 28.3125 C71.39112221 31.07145635 71.39112221 31.07145635 71.9375 33.875 C72.52558052 36.46250567 72.52558052 36.46250567 74.6875 38.3125 C77.98464793 37.98278521 79.3101839 37.6898161 81.6875 35.3125 C81.49992938 31.48685335 81.49992938 31.48685335 79.6875 28.3125 C76.72945427 27.97909529 76.72945427 27.97909529 73.6875 28.3125 Z M44.6875 35.3125 C45.6875 38.3125 45.6875 38.3125 45.6875 38.3125 Z M62.6875 39.3125 C62.1875 42.3125 62.1875 42.3125 62.6875 45.3125 C65.44645635 47.60887779 65.44645635 47.60887779 68.25 47.0625 C70.83750567 46.47441948 70.83750567 46.47441948 72.6875 44.3125 C72.35778521 41.01535207 72.0648161 39.6898161 69.6875 37.3125 C65.64127498 36.94269987 65.64127498 36.94269987 62.6875 39.3125 Z " fill="#FFFFFF" transform="translate(66.3125,57.6875)"/>
</svg>
