<?xml version="1.0" encoding="UTF-8"?>
<svg version="1.1" xmlns="http://www.w3.org/2000/svg" width="200" height="200">
<path d="M0 0 C0 20.46 0 40.92 0 62 C-9 59 -9 59 -11.765625 58.05078125 C-24.70408201 54.20586242 -38.77291981 55.67729198 -52 57 C-52 36.21 -52 15.42 -52 -6 C-31.19540105 -10.8010613 -18.92545039 -9.46272519 0 0 Z M-39 6 C-39 6.99 -39 7.98 -39 9 C-37.97261719 9.03738281 -36.94523437 9.07476562 -35.88671875 9.11328125 C-27.55738905 9.48483863 -19.96598531 10.31654309 -12 13 C-12.33 12.01 -12.66 11.02 -13 10 C-21.5833423 6.15229483 -29.70750693 5.84876594 -39 6 Z M-39 20 C-39 20.66 -39 21.32 -39 22 C-37.80503906 22.12117188 -36.61007813 22.24234375 -35.37890625 22.3671875 C-19.69869427 24.00404223 -19.69869427 24.00404223 -12 26 C-14.71019269 21.93471097 -17.09354298 21.73486354 -21.69140625 20.5625 C-27.44754664 19.58388817 -33.18309729 19.77072062 -39 20 Z M-39 34 C-39 34.66 -39 35.32 -39 36 C-37.80503906 36.12117188 -36.61007813 36.24234375 -35.37890625 36.3671875 C-19.69869427 38.00404223 -19.69869427 38.00404223 -12 40 C-14.71019269 35.93471097 -17.09354298 35.73486354 -21.69140625 34.5625 C-27.44754664 33.58388817 -33.18309729 33.77072062 -39 34 Z " fill="#FFFFFF" transform="translate(97,67)"/>
<path d="M0 0 C0 20.79 0 41.58 0 63 C-3.3 62.67 -6.6 62.34 -10 62 C-21.85246571 61.42298451 -31.84698028 61.62188051 -43 66 C-45.97 66.99 -45.97 66.99 -49 68 C-49 47.54 -49 27.08 -49 6 C-30.28669922 -3.35665039 -20.25508619 -5.52411442 0 0 Z M-41 17 C-41 17.66 -41 18.32 -41 19 C-40.47535156 18.79503906 -39.95070313 18.59007812 -39.41015625 18.37890625 C-31.06984239 15.47853088 -22.74091872 15.29406803 -14 15 C-14.33 14.01 -14.66 13.02 -15 12 C-23.46407048 11.66951569 -34.12303252 11.30871656 -41 17 Z M-41 30 C-40.67 30.99 -40.34 31.98 -40 33 C-38.8759375 32.52949219 -37.751875 32.05898437 -36.59375 31.57421875 C-31.93589109 29.82752166 -27.43110401 29.25019571 -22.5 28.8125 C-21.67757812 28.73064453 -20.85515625 28.64878906 -20.0078125 28.56445312 C-18.00614225 28.36661362 -16.00318047 28.18191276 -14 28 C-14 27.34 -14 26.68 -14 26 C-23.40049446 25.62946956 -32.40935153 25.70467576 -41 30 Z M-41 44 C-40.67 44.99 -40.34 45.98 -40 47 C-38.8759375 46.52949219 -37.751875 46.05898437 -36.59375 45.57421875 C-31.93589109 43.82752166 -27.43110401 43.25019571 -22.5 42.8125 C-21.67757812 42.73064453 -20.85515625 42.64878906 -20.0078125 42.56445312 C-18.00614225 42.36661362 -16.00318047 42.18191276 -14 42 C-14 41.34 -14 40.68 -14 40 C-23.40049446 39.62946956 -32.40935153 39.70467576 -41 44 Z " fill="#FFFFFF" transform="translate(153,61)"/>
<path d="M0 0 C1.32 0.33 2.64 0.66 4 1 C4 22.45 4 43.9 4 66 C8.95 65.01 13.9 64.02 19 63 C22.46457717 62.74355089 25.68334644 62.56294324 29.125 62.625 C29.97336426 62.63515137 30.82172852 62.64530273 31.69580078 62.65576172 C40.05282113 62.86059843 47.89287296 63.83234962 55.375 67.78125 C61.31028367 71.20584326 61.31028367 71.20584326 67.91699219 71.61621094 C71.30448398 70.36943754 74.39764626 68.66641401 77.5390625 66.90234375 C91.57904431 59.1851077 109.30932454 63.79639868 124 66 C124 44.55 124 23.1 124 1 C125.32 0.67 126.64 0.34 128 0 C128 23.43 128 46.86 128 71 C122.1183205 70.41183205 116.38660112 69.79867596 110.5625 68.9375 C94.76319295 66.84361593 82.94486989 68.89490351 69.12890625 76.76953125 C66 78 66 78 63.40625 77.3515625 C62.6121875 76.90554687 61.818125 76.45953125 61 76 C60.18402344 75.60941406 59.36804688 75.21882813 58.52734375 74.81640625 C57.67269531 74.40261719 56.81804687 73.98882812 55.9375 73.5625 C39.91654053 66.36159002 24.13211774 66.6620834 7.2578125 70.34375 C4 71 4 71 0 71 C0 47.57 0 24.14 0 0 Z " fill="#FFFFFF" transform="translate(36,66)"/>
</svg>
