<?xml version="1.0" encoding="UTF-8"?>
<svg version="1.1" xmlns="http://www.w3.org/2000/svg" width="200" height="200">
<path d="M0 0 C8.42606083 4.3093783 16.17392178 9.36717567 23.99658203 14.65576172 C26.60941277 16.40889919 29.24015769 18.13213337 31.88748169 19.8327179 C33.27602363 20.73751747 34.6531693 21.66022241 36.0144043 22.60560608 C40.11322168 25.39385203 43.9491357 27.42962055 48.63696289 29.06396484 C55.42568483 31.76931151 60.92570138 34.75907918 65 41 C69.4378934 54.49108702 66.99592783 71.68911129 66.375 85.375 C65.92125 99.44125 65.4675 113.5075 65 128 C22.1 128 -20.8 128 -65 128 C-65.33 114.01625 -65.66 100.0325 -66 85.625 C-66.14566406 81.22623535 -66.29132813 76.8274707 -66.44140625 72.29541016 C-66.51367188 66.8815918 -66.51367188 66.8815918 -66.52709961 64.33895874 C-66.55151375 62.580404 -66.60748249 60.8221014 -66.68920898 59.0652771 C-67.32635276 44.63483595 -67.32635276 44.63483595 -63.45870209 40.25432014 C-59.65162059 37.13782654 -55.46417856 34.98640246 -51.00299168 32.96045589 C-47.95258391 31.4977528 -45.25367743 29.65658325 -42.453125 27.76171875 C-41.4329126 27.09277588 -40.4127002 26.42383301 -39.36157227 25.73461914 C-37.82134399 24.72129517 -37.82134399 24.72129517 -36.25 23.6875 C-34.57650192 22.58977648 -32.9030017 21.49205617 -31.22926331 20.3946991 C-29.56198152 19.30152842 -27.89500266 18.20789577 -26.22802734 17.11425781 C-20.51369583 13.37154787 -14.78369099 9.65301408 -9.05371094 5.93432617 C-8.29477539 5.4416626 -7.53583984 4.94899902 -6.75390625 4.44140625 C-6.09720947 4.01545166 -5.4405127 3.58949707 -4.76391602 3.15063477 C-3.16934644 2.11046779 -1.58408904 1.05605936 0 0 Z M-16 66 C-16 81.18 -16 96.36 -16 112 C-5.77 112 4.46 112 15 112 C15 96.82 15 81.64 15 66 C4.77 66 -5.46 66 -16 66 Z " fill="#FFFFFF" transform="translate(96,32)"/>
</svg>
