<?xml version="1.0" encoding="UTF-8"?>
<svg version="1.1" xmlns="http://www.w3.org/2000/svg" width="200" height="200">
<path d="M0 0 C0.09272133 11.63084971 0.16377603 23.26161134 0.20724869 34.89275551 C0.22811448 40.29370818 0.25641407 45.6944078 0.30175781 51.09521484 C0.34525098 56.30828714 0.36914469 61.52111618 0.37950897 66.73435593 C0.38689407 68.72227177 0.40131549 70.71017445 0.42292023 72.6979866 C0.45200018 75.48465898 0.45595406 78.27032897 0.45410156 81.05712891 C0.46848267 81.87712372 0.48286377 82.69711853 0.49768066 83.54196167 C0.45970454 88.82898965 -0.52878523 91.78347137 -4 96 C-9.68522562 100.55067402 -15.88234067 101.68588354 -23 101 C-29.56826804 99.65928611 -33.22050474 96.42730288 -37 91 C-38.74255416 87.51489167 -38.44351248 83.81045929 -38 80 C-36.18778532 74.67726661 -32.86011371 71.68857354 -28 69 C-20.71989011 66.5732967 -12.67390962 68 -5 68 C-4.67 51.5 -4.34 35 -4 18 C-15.12753915 21.72224877 -15.12753915 21.72224877 -26.25390625 25.44799805 C-27.69006325 25.92769413 -29.12625889 26.40727456 -30.5625 26.88671875 C-31.25794922 27.12024048 -31.95339844 27.35376221 -32.66992188 27.59436035 C-40.41098636 30.17514296 -48.20782068 32.57912985 -56 35 C-56.00586624 35.90122589 -56.01173248 36.80245178 -56.01777649 37.73098755 C-56.07574394 46.23522405 -56.147844 54.73919905 -56.23571491 63.24318123 C-56.28039182 67.61490145 -56.31965377 71.98652906 -56.34643555 76.35839844 C-56.37249539 80.57960838 -56.41291653 84.80046143 -56.46318626 89.02145004 C-56.4798369 90.62969388 -56.49136241 92.23799942 -56.49761391 93.84631729 C-56.5072749 96.10381499 -56.53535629 98.36040335 -56.56762695 100.61767578 C-56.57873001 101.90118927 -56.58983307 103.18470276 -56.60127258 104.5071106 C-57.17549335 109.53733813 -58.72228284 112.82056878 -62.4375 116.25 C-67.13226886 119.45618361 -70.08981748 120.29383812 -75.875 120.3125 C-77.06867188 120.32925781 -78.26234375 120.34601563 -79.4921875 120.36328125 C-84.83674466 119.80978034 -88.79265402 117.81063094 -92.3125 113.75 C-95.11388409 110.25010807 -96 107.5615959 -96 103 C-95.22943289 96.83546313 -92.54294389 94.1928093 -87.97265625 90.3828125 C-80.07778171 84.84858361 -70.82875683 88 -61 88 C-61 65.23 -61 42.46 -61 19 C-44.11997768 13.37332589 -44.11997768 13.37332589 -36.61296082 10.87519836 C-30.42721469 8.81606271 -24.24444077 6.74986371 -18.07421875 4.64453125 C-16.62825317 4.15351929 -16.62825317 4.15351929 -15.15307617 3.65258789 C-13.43148929 3.06689665 -11.71148886 2.47651328 -9.9934082 1.88061523 C-6.44574894 0.67775427 -3.78765119 0 0 0 Z " fill="#000000" transform="translate(143,40)"/>
</svg>
