<?xml version="1.0" encoding="UTF-8"?>
<svg version="1.1" xmlns="http://www.w3.org/2000/svg" width="200" height="200">
<path d="M0 0 C1.09489746 0.13760742 2.18979492 0.27521484 3.31787109 0.41699219 C6.73929607 0.86527325 10.15004117 1.36322884 13.5625 1.875 C15.30370117 2.11669922 15.30370117 2.11669922 17.08007812 2.36328125 C18.18931641 2.52957031 19.29855469 2.69585937 20.44140625 2.8671875 C21.43857666 3.01269043 22.43574707 3.15819336 23.46313477 3.30810547 C26.41952981 4.11442089 27.25397719 4.49609913 29 7 C29.28051469 9.73060165 29.37904158 12.23034292 29.34057617 14.9597168 C29.34101425 15.76970123 29.34145233 16.57968567 29.34190369 17.41421509 C29.33981284 20.09279444 29.31646814 22.77074868 29.29296875 25.44921875 C29.28737384 27.30580809 29.28310325 29.16240185 29.28010559 31.01899719 C29.26864854 35.90666929 29.23917394 40.79407415 29.20599365 45.68164062 C29.17531132 50.66858301 29.16160418 55.65556856 29.14648438 60.64257812 C29.11430508 70.42850286 29.06309831 80.21422921 29 90 C28.02804688 90.44988281 27.05609375 90.89976562 26.0546875 91.36328125 C22.86839546 92.64917215 22.86839546 92.64917215 22.125 95.1875 C22.08375 95.785625 22.0425 96.38375 22 97 C17.71091901 97.70184962 14.27401462 98.05726397 9.98339844 97.36328125 C4.50500064 96.73787735 -0.09323574 97.87493482 -5.36328125 99.30859375 C-6.317686 99.55416519 -7.27209076 99.79973663 -8.25541687 100.05274963 C-11.27844857 100.83313893 -14.29547566 101.63423023 -17.3125 102.4375 C-20.34821898 103.23341111 -23.38500784 104.02489564 -26.42314148 104.8115387 C-28.30677721 105.30054347 -30.18886903 105.7955441 -32.06916809 106.29722595 C-32.92072983 106.52068192 -33.77229156 106.74413788 -34.6496582 106.97436523 C-35.39528519 107.17279526 -36.14091217 107.37122528 -36.90913391 107.57566833 C-39 108 -39 108 -43 108 C-43.33 109.65 -43.66 111.3 -44 113 C-45.51940859 113.19871541 -47.04066318 113.38332696 -48.5625 113.5625 C-49.83287109 113.71912109 -49.83287109 113.71912109 -51.12890625 113.87890625 C-57.23264468 114.13634284 -63.10708113 112.58817059 -68.98046875 111.07421875 C-69.71574295 110.88535599 -70.45101715 110.69649323 -71.20857239 110.50190735 C-72.75120908 110.10323277 -74.29325206 109.70225441 -75.8347168 109.29907227 C-78.18818212 108.68732269 -80.54597462 108.0946603 -82.90429688 107.50195312 C-84.40915947 107.11054693 -85.91372788 106.71800758 -87.41796875 106.32421875 C-88.11907272 106.15113693 -88.8201767 105.97805511 -89.54252625 105.79972839 C-93.81137427 104.65331509 -96.34736479 103.55622797 -99 100 C-99.38950755 97.13931861 -99.53740887 94.6652531 -99.50170898 91.80664062 C-99.50711197 90.98342819 -99.51251495 90.16021576 -99.51808167 89.3120575 C-99.53058078 86.59308836 -99.51407047 83.87517567 -99.49609375 81.15625 C-99.49624871 79.26582789 -99.49773721 77.37540545 -99.50050354 75.48498535 C-99.50188806 71.52386422 -99.48932058 67.56310494 -99.46655273 63.60205078 C-99.43816798 58.524231 -99.44090473 53.44701252 -99.45364285 48.36914825 C-99.46059733 44.4657884 -99.45281337 40.56256757 -99.44038582 36.65922546 C-99.43586907 34.78692661 -99.43553646 32.91461284 -99.43945122 31.04231262 C-99.44236117 28.42568361 -99.42586711 25.80988364 -99.40405273 23.19335938 C-99.40855438 22.41921188 -99.41305603 21.64506439 -99.41769409 20.84745789 C-99.3741917 17.70743421 -99.18802645 15.3641458 -97.73571777 12.55149841 C-95.68916462 10.72215494 -94.52808603 10.3507067 -91.82446289 9.98266602 C-90.97862137 9.8588002 -90.13277985 9.73493439 -89.26130676 9.60731506 C-88.34105209 9.49069016 -87.42079742 9.37406525 -86.47265625 9.25390625 C-85.50829147 9.11750229 -84.5439267 8.98109833 -83.55033875 8.84056091 C-80.38980573 8.39762409 -77.22653541 7.97961791 -74.0625 7.5625 C-71.88359068 7.26381346 -69.70488011 6.96367351 -67.52636719 6.66210938 C-63.12361097 6.05460069 -58.71972783 5.45636535 -54.31494141 4.86376953 C-48.61250922 4.09140645 -42.92079678 3.25873506 -37.23046875 2.40234375 C-34.82405155 2.04579309 -32.41743638 1.6906197 -30.01071167 1.33615112 C-28.52421582 1.11512017 -27.03828716 0.89023423 -25.55300903 0.66116333 C-16.83000028 -0.6771767 -8.77646982 -1.20905502 0 0 Z M-18.06347656 3.91796875 C-18.76631775 4.01550446 -19.46915894 4.11304016 -20.19329834 4.21353149 C-22.5094423 4.53560427 -24.82502637 4.86153159 -27.140625 5.1875 C-28.74913268 5.41194031 -30.35767403 5.63613951 -31.96624756 5.86010742 C-36.19487882 6.44953602 -40.42304512 7.04223716 -44.65112305 7.63562012 C-48.96766025 8.24082742 -53.28462899 8.8429398 -57.6015625 9.4453125 C-66.06813385 10.62717909 -74.53421651 11.81250314 -83 13 C-83 13.66 -83 14.32 -83 15 C-81.98631348 15.17390259 -81.98631348 15.17390259 -80.95214844 15.35131836 C-77.88449574 15.87848884 -74.81724615 16.40796945 -71.75 16.9375 C-70.15478516 17.21110352 -70.15478516 17.21110352 -68.52734375 17.49023438 C-67.50253906 17.66748047 -66.47773437 17.84472656 -65.421875 18.02734375 C-64.47924805 18.18968506 -63.53662109 18.35202637 -62.56542969 18.51928711 C-60 19 -60 19 -58.29161072 19.58407593 C-54.97721917 20.18563326 -52.09721942 19.62504318 -48.76879883 19.13549805 C-48.04805679 19.03156738 -47.32731476 18.92763672 -46.58473206 18.82055664 C-44.20759851 18.47551283 -41.83234584 18.11905434 -39.45703125 17.76171875 C-37.8061076 17.5180372 -36.15512091 17.27478233 -34.5040741 17.03193665 C-31.04758166 16.52164142 -27.59200933 16.00558811 -24.13696289 15.4855957 C-19.69966944 14.81833506 -15.26028632 14.16635478 -10.82008839 13.51874065 C-7.41261003 13.01989391 -4.00643461 12.51257695 -0.60059166 12.00269508 C1.03653849 11.75874714 2.67408453 11.51757411 4.3120327 11.27918053 C6.59508506 10.9456903 8.87611476 10.60076061 11.15698242 10.25268555 C13.10745735 9.96170235 13.10745735 9.96170235 15.09733582 9.6648407 C16.055215 9.44544327 17.01309418 9.22604584 18 9 C18.33 8.34 18.66 7.68 19 7 C14.75076277 6.32840975 10.50049499 5.66357939 6.25 5 C5.0434375 4.80921875 3.836875 4.6184375 2.59375 4.421875 C1.43359375 4.24140625 0.2734375 4.0609375 -0.921875 3.875 C-1.99018555 3.70742188 -3.05849609 3.53984375 -4.15917969 3.3671875 C-8.95086655 2.74784262 -13.30977914 3.25311596 -18.06347656 3.91796875 Z M11.55761719 12.99389648 C10.83818939 13.09957947 10.1187616 13.20526245 9.37753296 13.31414795 C7.01665125 13.66214574 4.65676406 14.01643189 2.296875 14.37109375 C0.65118527 14.61560289 -0.99454702 14.85982573 -2.64031982 15.10377502 C-6.08029576 15.61466265 -9.51979852 16.1285966 -12.95898438 16.64477539 C-17.37233481 17.30697182 -21.78668947 17.96217386 -26.20140457 18.6152029 C-29.59545977 19.11792356 -32.98900902 19.62399207 -36.38240814 20.13112068 C-38.01060434 20.37409556 -39.6389462 20.61609643 -41.26743317 20.85711479 C-43.53720523 21.19362248 -45.80626975 21.53454676 -48.07519531 21.87670898 C-50.01329071 22.16649879 -50.01329071 22.16649879 -51.99053955 22.46214294 C-54.91113249 22.83770065 -54.91113249 22.83770065 -57 24 C-57 51.72 -57 79.44 -57 108 C-46.81125 105.463125 -36.6225 102.92625 -26.125 100.3125 C-21.35893311 99.12781128 -21.35893311 99.12781128 -16.49658203 97.91918945 C-13.91694478 97.27574342 -11.3373521 96.63211865 -8.7578125 95.98828125 C-8.11649384 95.82925827 -7.47517517 95.67023529 -6.81442261 95.50639343 C3.85133241 92.86053551 14.40490925 89.94308077 25 87 C25 62.25 25 37.5 25 12 C20.2687528 12 16.19735279 12.30470379 11.55761719 12.99389648 Z M-95 17 C-95.09259624 27.50920045 -95.16371219 38.01830419 -95.20724869 48.52782917 C-95.22814192 53.40761515 -95.25649113 58.28712247 -95.30175781 63.16674805 C-95.34515381 67.87406854 -95.36912402 72.58112066 -95.37950897 77.28862572 C-95.3869116 79.08644017 -95.40136696 80.88423959 -95.42292023 82.68194008 C-95.4518718 85.19624432 -95.45595956 87.70943341 -95.45410156 90.22387695 C-95.46848267 90.97050095 -95.48286377 91.71712494 -95.49768066 92.4863739 C-95.47029465 96.65171121 -95.47029465 96.65171121 -93.11177063 99.93603516 C-90.85609953 101.07250079 -88.79463446 101.79055883 -86.33984375 102.38671875 C-85.46392578 102.60263672 -84.58800781 102.81855469 -83.68554688 103.04101562 C-82.77869141 103.25435547 -81.87183594 103.46769531 -80.9375 103.6875 C-80.02677734 103.91244141 -79.11605469 104.13738281 -78.17773438 104.36914062 C-73.14552602 105.60709193 -73.14552602 105.60709193 -68 106 C-68 77.95 -68 49.9 -68 21 C-81.43272658 18.22054935 -81.43272658 18.22054935 -95 17 Z M-64 22 C-64 50.05 -64 78.1 -64 107 C-63.01 107.33 -62.02 107.66 -61 108 C-60.97686462 97.08230602 -60.95907879 86.16461784 -60.94818783 75.24690437 C-60.94296163 70.17777772 -60.93586872 65.1086678 -60.92456055 60.03955078 C-60.91372237 55.15071319 -60.90772118 50.26189173 -60.90512276 45.37304306 C-60.90327019 43.50466533 -60.89965279 41.63628852 -60.89426994 39.76791763 C-60.88704719 37.15792154 -60.88600959 34.54799271 -60.88647461 31.93798828 C-60.88287933 31.1597168 -60.87928406 30.38144531 -60.87557983 29.57958984 C-60.80315814 25.66147286 -60.80315814 25.66147286 -62 22 C-62.66 22 -63.32 22 -64 22 Z M17 93 C16.01 93.66 15.02 94.32 14 95 C15.98 94.67 17.96 94.34 20 94 C19.01 93.67 18.02 93.34 17 93 Z " fill="#000000" transform="translate(135,43)"/>
</svg>
