<?xml version="1.0" encoding="UTF-8"?>
<svg version="1.1" xmlns="http://www.w3.org/2000/svg" width="200" height="200">
<path d="M0 0 C0 5.61 0 11.22 0 17 C-7.12835637 19.93051031 -14.29629047 22.51017745 -21.625 24.890625 C-22.69371338 25.24010193 -23.76242676 25.58957886 -24.86352539 25.949646 C-27.10168536 26.68061499 -29.3403814 27.40994448 -31.57958984 28.13769531 C-35.01946858 29.25633111 -38.45708492 30.38172719 -41.89453125 31.5078125 C-44.07538988 32.21915162 -46.25637495 32.93010323 -48.4375 33.640625 C-49.98268311 34.14677338 -49.98268311 34.14677338 -51.55908203 34.66314697 C-52.5076709 34.97056824 -53.45625977 35.2779895 -54.43359375 35.59472656 C-55.26947021 35.86690002 -56.10534668 36.13907349 -56.96655273 36.41949463 C-59 37 -59 37 -61 37 C-60.99333817 37.84889297 -60.98667633 38.69778595 -60.97981262 39.57240295 C-60.91958622 47.59049038 -60.87396711 55.60850132 -60.84456348 63.62676334 C-60.82893834 67.74858855 -60.80775811 71.87022612 -60.77368164 75.99194336 C-60.74097513 79.97308116 -60.72312329 83.95403899 -60.71536827 87.93530083 C-60.70984495 89.45068632 -60.6990593 90.96606249 -60.68280983 92.48137093 C-60.66088458 94.61157283 -60.65803924 96.74104048 -60.65942383 98.87133789 C-60.65276199 100.0815712 -60.64610016 101.2918045 -60.63923645 102.53871155 C-61.117808 107.13029012 -62.39779829 111.13290094 -65.46484375 114.70703125 C-73.17151915 120.49214833 -79.56104059 120.80934271 -89 120 C-94.46951135 118.40886943 -97.72203906 114.43488833 -101 110 C-102.85602244 106.28795513 -102.44875601 102.0512695 -102 98 C-98.78962604 91.57925207 -94.56502307 88.62600923 -88 86 C-80.74 86 -73.48 86 -66 86 C-65.67 64.22 -65.34 42.44 -65 20 C-28.75795188 7.87338314 -28.75795188 7.87338314 -14.5 3.25 C-13.48236572 2.91548828 -12.46473145 2.58097656 -11.41625977 2.23632812 C-10.01911743 1.78676758 -10.01911743 1.78676758 -8.59375 1.328125 C-7.79646484 1.0693457 -6.99917969 0.81056641 -6.17773438 0.54394531 C-4 0 -4 0 0 0 Z " fill="#FFFFFF" transform="translate(151,38)"/>
<path d="M0 0 C5.26418045 0.22673436 8.65972944 3.44612181 12.625 6.5625 C14.04344071 7.65862714 15.46271595 8.75367519 16.8828125 9.84765625 C17.57793945 10.38535645 18.27306641 10.92305664 18.98925781 11.47705078 C20.79527194 12.84493763 22.62358494 14.15321465 24.4921875 15.43359375 C25.48476562 16.11550781 26.47734375 16.79742187 27.5 17.5 C28.3765625 18.0878125 29.253125 18.675625 30.15625 19.28125 C30.7646875 19.8484375 31.373125 20.415625 32 21 C32 25 32 25 30.73754883 26.4128418 C30.14997803 26.83734619 29.56240723 27.26185059 28.95703125 27.69921875 C28.3012207 28.18237549 27.64541016 28.66553223 26.96972656 29.16333008 C26.2578418 29.66630615 25.54595703 30.16928223 24.8125 30.6875 C24.0915918 31.20916748 23.37068359 31.73083496 22.62792969 32.26831055 C21.14573707 33.3368794 19.65920084 34.39944821 18.16845703 35.45605469 C16.15615514 36.88881726 14.16757573 38.34871498 12.18359375 39.8203125 C11.03995301 40.65226719 9.89547103 41.48306715 8.75 42.3125 C7.73421875 43.05113281 6.7184375 43.78976563 5.671875 44.55078125 C3 46 3 46 0.83300781 45.59057617 C0.22811523 45.39568604 -0.37677734 45.2007959 -1 45 C-1.02527124 38.75204325 -1.04283344 32.50409959 -1.05493164 26.25610352 C-1.05997298 24.12881986 -1.06680591 22.00153969 -1.07543945 19.87426758 C-1.08751379 16.82372174 -1.09323014 13.77322155 -1.09765625 10.72265625 C-1.10281754 9.76537125 -1.10797882 8.80808624 -1.11329651 7.8217926 C-1.11337204 6.94095505 -1.11344757 6.06011749 -1.11352539 5.15258789 C-1.115746 4.37315323 -1.11796661 3.59371857 -1.12025452 2.79066467 C-1 1 -1 1 0 0 Z " fill="#FFFFFF" transform="translate(107,82)"/>
</svg>
