<svg version="1.1" id="Layer_1" xmlns="http://www.w3.org/2000/svg" xmlns:xlink="http://www.w3.org/1999/xlink" x="0px" y="0px"
	 width="100%" viewBox="0 0 128 128" enable-background="new 0 0 128 128" xml:space="preserve">
<path fill="#000000" opacity="1.000000" stroke="none" 
	d="
M0.999999,63.000000 
	C1.000000,42.396755 1.000000,21.793512 1.000000,1.000000 
	C27.687260,1.000000 54.374969,1.000000 81.818748,1.294941 
	C81.455986,2.489312 80.376732,3.444020 79.211266,4.278303 
	C74.890701,7.371125 73.438034,15.235024 77.761452,19.207319 
	C80.256592,21.499821 83.368370,23.121181 85.797066,24.769394 
	C84.350609,27.536558 82.587708,30.692059 81.023201,33.943039 
	C76.438522,43.469864 72.742409,53.647770 62.065453,58.482342 
	C60.910835,59.005154 60.030033,60.216743 58.856262,60.598278 
	C54.318462,62.073284 55.495396,65.986237 56.527241,68.328621 
	C57.092472,69.611748 62.094460,70.644081 63.360638,69.627754 
	C69.753517,64.496391 78.526443,62.339802 82.536499,54.302067 
	C83.040581,57.007122 83.443855,59.526417 83.986412,62.015350 
	C85.535202,69.120369 85.052498,75.535110 78.409332,80.152954 
	C77.063606,81.088409 75.899551,82.371887 74.881302,83.674393 
	C72.513504,86.703186 69.297966,89.535286 68.222855,93.004028 
	C66.419434,98.822609 65.983650,105.069962 65.036880,111.146942 
	C64.611290,113.878670 63.668995,116.764595 64.168266,119.347191 
	C64.813896,122.686897 66.666870,125.793198 68.000000,129.000000 
	C45.742668,129.000000 23.485340,129.000000 1.000000,129.000000 
	C1.000000,108.646339 1.000000,88.291832 1.278037,67.183296 
	C8.076091,72.497231 14.729810,78.430161 21.055923,84.693947 
	C23.928808,87.538536 25.972712,87.731674 28.830414,84.769157 
	C33.947941,79.463928 34.108009,79.540276 29.002474,74.564308 
	C28.015305,73.602188 26.588564,73.091087 25.364595,72.371933 
	C25.760675,71.867538 26.156757,71.363144 26.552837,70.858749 
	C32.947788,70.858749 39.342735,70.858749 45.752739,70.858749 
	C45.752739,66.756447 45.752739,63.022869 45.752739,58.902050 
	C39.150612,58.902050 32.784153,58.902050 26.417696,58.902050 
	C27.669880,56.314873 29.489923,54.697903 31.369556,53.153454 
	C33.531296,51.377190 33.573917,49.691994 31.409971,47.867039 
	C30.270624,46.906170 29.208977,45.832520 28.228083,44.708691 
	C26.173077,42.354240 24.189682,42.354656 21.945383,44.503910 
	C16.226381,49.980717 10.468287,55.417908 4.648666,60.787304 
	C3.624103,61.732601 2.225737,62.272747 0.999999,63.000000 
z"/>
<path fill="#FFFFFF" opacity="1.000000" stroke="none" 
	d="
M68.437500,129.000000 
	C66.666870,125.793198 64.813896,122.686897 64.168266,119.347191 
	C63.668995,116.764595 64.611290,113.878670 65.036880,111.146942 
	C65.983650,105.069962 66.419434,98.822609 68.222855,93.004028 
	C69.297966,89.535286 72.513504,86.703186 74.881302,83.674393 
	C75.899551,82.371887 77.063606,81.088409 78.409332,80.152954 
	C85.052498,75.535110 85.535202,69.120369 83.986412,62.015350 
	C83.443855,59.526417 83.040581,57.007122 82.536499,54.302067 
	C78.526443,62.339802 69.753517,64.496391 63.360638,69.627754 
	C62.094460,70.644081 57.092472,69.611748 56.527241,68.328621 
	C55.495396,65.986237 54.318462,62.073284 58.856262,60.598278 
	C60.030033,60.216743 60.910835,59.005154 62.065453,58.482342 
	C72.742409,53.647770 76.438522,43.469864 81.023201,33.943039 
	C82.587708,30.692059 84.350609,27.536558 85.797066,24.769394 
	C83.368370,23.121181 80.256592,21.499821 77.761452,19.207319 
	C73.438034,15.235024 74.890701,7.371125 79.211266,4.278303 
	C80.376732,3.444020 81.455986,2.489312 82.287407,1.294941 
	C84.700012,1.000000 87.400032,1.000000 90.262375,1.297181 
	C90.871536,2.047185 91.238319,2.663702 91.777634,2.927453 
	C97.035934,5.499019 98.061470,10.362238 96.756248,15.039118 
	C95.803551,18.452854 92.617706,21.243366 90.496170,24.215300 
	C90.585548,24.263062 92.002357,24.756367 93.094444,25.647594 
	C99.163132,30.600100 105.334763,35.450863 111.103409,40.737713 
	C114.714684,44.047367 118.479881,47.641773 120.709213,51.879963 
	C122.963272,56.165127 123.370026,61.412052 124.660278,66.217728 
	C125.482964,69.281944 125.247772,72.151299 121.744102,72.867729 
	C118.621063,73.506325 115.392929,73.320869 114.926094,68.673286 
	C114.623291,65.658745 113.991341,62.564266 112.848267,59.775562 
	C111.401024,56.244781 111.363533,51.433765 105.923676,50.495209 
	C107.817863,61.121605 109.641563,71.608002 111.574867,82.074158 
	C112.361633,86.333458 112.561615,90.976921 114.487900,94.688133 
	C117.731041,100.936447 122.088356,106.615204 126.115738,112.437576 
	C126.670540,113.239647 128.018982,113.492744 129.000000,114.000000 
	C129.000000,117.692909 129.000000,121.385818 128.684418,125.247192 
	C127.245903,126.610435 126.122948,127.805222 125.000000,129.000000 
	C123.285645,129.000000 121.571281,129.000000 119.716492,128.700165 
	C108.416550,115.183205 97.612274,101.784012 97.223701,82.308167 
	C92.822052,86.704582 89.227737,90.115845 85.867561,93.743950 
	C84.626694,95.083763 83.653938,96.834412 83.042999,98.568260 
	C79.546638,108.490807 82.287254,120.064369 75.000000,129.000000 
	C72.958336,129.000000 70.916664,129.000000 68.437500,129.000000 
M104.120720,42.642994 
	C104.660378,42.683437 105.200043,42.723885 105.739708,42.764324 
	C105.424805,42.324760 105.109901,41.885197 104.353012,40.913151 
	C100.010979,37.234612 95.737320,33.468052 91.247345,29.979948 
	C90.630058,29.500402 88.236191,30.025639 87.857956,30.728111 
	C85.362312,35.363106 83.193260,40.173946 80.254784,45.225224 
	C78.393066,48.902889 76.531342,52.580555 74.519638,56.554501 
	C79.107979,54.366165 79.127541,49.185368 82.195602,45.257008 
	C85.841881,44.323437 85.586823,47.176605 85.978943,49.255001 
	C86.697784,53.065128 87.155327,56.928211 87.969536,60.715965 
	C89.865936,69.538109 89.890129,77.719154 81.186920,83.341759 
	C80.640236,83.694954 80.183281,84.226288 79.772743,84.744583 
	C77.169563,88.031029 73.309364,90.980087 72.270180,94.710732 
	C70.072212,102.601395 69.181267,110.882698 68.178200,119.055817 
	C67.991371,120.578102 69.392120,123.141136 70.758476,123.821472 
	C73.158722,125.016617 74.566933,123.029663 74.967270,120.691399 
	C75.704048,116.388023 76.240753,112.049408 77.023705,107.755173 
	C77.884354,103.034813 77.605667,97.382118 80.179871,93.855934 
	C84.926689,87.353683 91.372391,82.084999 97.190018,76.383751 
	C97.657242,75.925873 98.739845,76.095940 99.678444,75.952499 
	C100.137833,77.942688 100.707413,79.790314 100.976631,81.680710 
	C102.361839,91.407173 103.878975,101.010544 110.423409,109.022194 
	C113.988907,113.387070 116.920624,118.266029 120.393570,122.713715 
	C120.970924,123.453110 123.458336,123.764954 124.002419,123.218437 
	C124.829918,122.387222 125.173645,120.538918 124.909798,119.295052 
	C124.594688,117.809502 123.375183,116.530754 122.629128,115.119240 
	C117.240623,104.924393 108.406143,96.931320 107.567368,83.854668 
	C106.678314,69.994308 102.640320,56.335945 99.879379,42.082203 
	C101.417564,42.082203 102.672516,42.082203 104.120720,42.642994 
M79.096420,12.475845 
	C80.708450,16.048134 82.045433,20.111214 87.187950,19.300266 
	C90.976616,18.702816 93.342758,16.595207 93.012428,12.332015 
	C92.721489,8.577244 90.784111,6.439393 87.047989,6.008981 
	C82.626694,5.499635 80.494102,7.933158 79.096420,12.475845 
M118.384697,65.906754 
	C118.885796,66.953308 119.386894,67.999870 119.887993,69.046425 
	C120.162758,68.913620 120.437523,68.780815 120.712288,68.648018 
	C119.069794,62.363605 117.427299,56.079193 115.784805,49.794781 
	C115.398232,49.892990 115.011665,49.991199 114.625092,50.089409 
	C115.759232,55.114277 116.893364,60.139145 118.384697,65.906754 
M73.966476,57.351261 
	C73.027649,57.294868 72.088814,57.238476 71.149986,57.182083 
	C71.177650,57.545300 71.205307,57.908516 71.232971,58.271736 
	C71.915558,58.166542 72.598145,58.061352 73.966476,57.351261 
M70.457085,58.558334 
	C69.646454,58.901012 68.835815,59.243687 68.025185,59.586365 
	C68.111580,59.830883 68.197983,60.075401 68.284386,60.319920 
	C69.183296,59.986858 70.082214,59.653793 70.457085,58.558334 
M66.595947,60.925304 
	C66.075981,61.178246 65.556015,61.431187 65.036049,61.684128 
	C65.269096,61.992687 65.502136,62.301247 65.735184,62.609806 
	C66.304787,61.919235 66.874397,61.228668 66.595947,60.925304 
M64.457085,62.558342 
	C63.646446,62.901009 62.835804,63.243679 62.025162,63.586349 
	C62.111568,63.830875 62.197971,64.075401 62.284378,64.319931 
	C63.183292,63.986862 64.082207,63.653793 64.457085,62.558342 
M113.020622,47.700939 
	C112.453369,47.646999 111.886116,47.593060 111.318863,47.539124 
	C111.748772,47.826668 112.178673,48.114216 113.020622,47.700939 
M60.704472,65.944916 
	C61.110435,65.681763 61.516403,65.418610 61.922371,65.155457 
	C61.353943,65.208488 60.785511,65.261520 60.704472,65.944916 
z"/>
<path fill="#000000" opacity="1.000000" stroke="none" 
	d="
M129.000000,113.531342 
	C128.018982,113.492744 126.670540,113.239647 126.115738,112.437576 
	C122.088356,106.615204 117.731041,100.936447 114.487900,94.688133 
	C112.561615,90.976921 112.361633,86.333458 111.574867,82.074158 
	C109.641563,71.608002 107.817863,61.121605 105.923676,50.495209 
	C111.363533,51.433765 111.401024,56.244781 112.848267,59.775562 
	C113.991341,62.564266 114.623291,65.658745 114.926094,68.673286 
	C115.392929,73.320869 118.621063,73.506325 121.744102,72.867729 
	C125.247772,72.151299 125.482964,69.281944 124.660278,66.217728 
	C123.370026,61.412052 122.963272,56.165127 120.709213,51.879963 
	C118.479881,47.641773 114.714684,44.047367 111.103409,40.737713 
	C105.334763,35.450863 99.163132,30.600100 93.094444,25.647594 
	C92.002357,24.756367 90.585548,24.263062 90.496170,24.215300 
	C92.617706,21.243366 95.803551,18.452854 96.756248,15.039118 
	C98.061470,10.362238 97.035934,5.499019 91.777634,2.927453 
	C91.238319,2.663702 90.871536,2.047185 90.712349,1.297181 
	C103.629860,1.000000 116.259727,1.000000 129.000000,1.000000 
	C129.000000,38.354160 129.000000,75.708420 129.000000,113.531342 
z"/>
<path fill="#000000" opacity="1.000000" stroke="none" 
	d="
M75.468658,129.000000 
	C82.287254,120.064369 79.546638,108.490807 83.042999,98.568260 
	C83.653938,96.834412 84.626694,95.083763 85.867561,93.743950 
	C89.227737,90.115845 92.822052,86.704582 97.223701,82.308167 
	C97.612274,101.784012 108.416550,115.183205 119.288025,128.700165 
	C104.645775,129.000000 90.291542,129.000000 75.468658,129.000000 
z"/>
<path fill="#FFFFFF" opacity="1.000000" stroke="none" 
	d="
M0.999999,63.399994 
	C2.225737,62.272747 3.624103,61.732601 4.648666,60.787304 
	C10.468287,55.417908 16.226381,49.980717 21.945383,44.503910 
	C24.189682,42.354656 26.173077,42.354240 28.228083,44.708691 
	C29.208977,45.832520 30.270624,46.906170 31.409971,47.867039 
	C33.573917,49.691994 33.531296,51.377190 31.369556,53.153454 
	C29.489923,54.697903 27.669880,56.314873 26.417696,58.902050 
	C32.784153,58.902050 39.150612,58.902050 45.752739,58.902050 
	C45.752739,63.022869 45.752739,66.756447 45.752739,70.858749 
	C39.342735,70.858749 32.947788,70.858749 26.552837,70.858749 
	C26.156757,71.363144 25.760675,71.867538 25.364595,72.371933 
	C26.588564,73.091087 28.015305,73.602188 29.002474,74.564308 
	C34.108009,79.540276 33.947941,79.463928 28.830414,84.769157 
	C25.972712,87.731674 23.928808,87.538536 21.055923,84.693947 
	C14.729810,78.430161 8.076091,72.497231 1.278037,66.714638 
	C1.000000,65.933334 1.000000,64.866661 0.999999,63.399994 
z"/>
<path fill="#000000" opacity="1.000000" stroke="none" 
	d="
M125.500000,129.000000 
	C126.122948,127.805222 127.245903,126.610435 128.684418,125.707825 
	C129.498810,128.498810 128.498810,129.498810 125.500000,129.000000 
z"/>
<path fill="#000000" opacity="1.000000" stroke="none" 
	d="
M80.917778,44.927486 
	C83.193260,40.173946 85.362312,35.363106 87.857956,30.728111 
	C88.236191,30.025639 90.630058,29.500402 91.247345,29.979948 
	C95.737320,33.468052 100.010979,37.234612 104.349220,41.327763 
	C104.206100,41.855652 104.066780,41.968925 103.927467,42.082203 
	C102.672516,42.082203 101.417564,42.082203 99.879379,42.082203 
	C102.640320,56.335945 106.678314,69.994308 107.567368,83.854668 
	C108.406143,96.931320 117.240623,104.924393 122.629128,115.119240 
	C123.375183,116.530754 124.594688,117.809502 124.909798,119.295052 
	C125.173645,120.538918 124.829918,122.387222 124.002419,123.218437 
	C123.458336,123.764954 120.970924,123.453110 120.393570,122.713715 
	C116.920624,118.266029 113.988907,113.387070 110.423409,109.022194 
	C103.878975,101.010544 102.361839,91.407173 100.976631,81.680710 
	C100.707413,79.790314 100.137833,77.942688 99.678444,75.952499 
	C98.739845,76.095940 97.657242,75.925873 97.190018,76.383751 
	C91.372391,82.084999 84.926689,87.353683 80.179871,93.855934 
	C77.605667,97.382118 77.884354,103.034813 77.023705,107.755173 
	C76.240753,112.049408 75.704048,116.388023 74.967270,120.691399 
	C74.566933,123.029663 73.158722,125.016617 70.758476,123.821472 
	C69.392120,123.141136 67.991371,120.578102 68.178200,119.055817 
	C69.181267,110.882698 70.072212,102.601395 72.270180,94.710732 
	C73.309364,90.980087 77.169563,88.031029 79.772743,84.744583 
	C80.183281,84.226288 80.640236,83.694954 81.186920,83.341759 
	C89.890129,77.719154 89.865936,69.538109 87.969536,60.715965 
	C87.155327,56.928211 86.697784,53.065128 85.978943,49.255001 
	C85.586823,47.176605 85.841881,44.323437 81.733543,45.295162 
	C81.153580,45.198040 81.035675,45.062763 80.917778,44.927486 
z"/>
<path fill="#000000" opacity="1.000000" stroke="none" 
	d="
M79.355850,12.195126 
	C80.494102,7.933158 82.626694,5.499635 87.047989,6.008981 
	C90.784111,6.439393 92.721489,8.577244 93.012428,12.332015 
	C93.342758,16.595207 90.976616,18.702816 87.187950,19.300266 
	C82.045433,20.111214 80.708450,16.048134 79.355850,12.195126 
z"/>
<path fill="#000000" opacity="1.000000" stroke="none" 
	d="
M118.206100,65.535385 
	C116.893364,60.139145 115.759232,55.114277 114.625092,50.089409 
	C115.011665,49.991199 115.398232,49.892990 115.784805,49.794781 
	C117.427299,56.079193 119.069794,62.363605 120.712288,68.648018 
	C120.437523,68.780815 120.162758,68.913620 119.887993,69.046425 
	C119.386894,67.999870 118.885796,66.953308 118.206100,65.535385 
z"/>
<path fill="#000000" opacity="1.000000" stroke="none" 
	d="
M81.431396,45.549828 
	C79.127541,49.185368 79.107979,54.366165 74.519638,56.554501 
	C76.531342,52.580555 78.393066,48.902889 80.586281,45.076355 
	C81.035675,45.062763 81.153580,45.198040 81.431396,45.549828 
z"/>
<path fill="#000000" opacity="1.000000" stroke="none" 
	d="
M73.623604,57.653709 
	C72.598145,58.061352 71.915558,58.166542 71.232971,58.271736 
	C71.205307,57.908516 71.177650,57.545300 71.149986,57.182083 
	C72.088814,57.238476 73.027649,57.294868 73.623604,57.653709 
z"/>
<path fill="#000000" opacity="1.000000" stroke="none" 
	d="
M70.719101,58.939529 
	C70.082214,59.653793 69.183296,59.986858 68.284386,60.319920 
	C68.197983,60.075401 68.111580,59.830883 68.025185,59.586365 
	C68.835815,59.243687 69.646454,58.901012 70.719101,58.939529 
z"/>
<path fill="#000000" opacity="1.000000" stroke="none" 
	d="
M67.019974,60.731701 
	C66.874397,61.228668 66.304787,61.919235 65.735184,62.609806 
	C65.502136,62.301247 65.269096,61.992687 65.036049,61.684128 
	C65.556015,61.431187 66.075981,61.178246 67.019974,60.731701 
z"/>
<path fill="#000000" opacity="1.000000" stroke="none" 
	d="
M64.719101,62.939537 
	C64.082207,63.653793 63.183292,63.986862 62.284378,64.319931 
	C62.197971,64.075401 62.111568,63.830875 62.025162,63.586349 
	C62.835804,63.243679 63.646446,62.901009 64.719101,62.939537 
z"/>
<path fill="#000000" opacity="1.000000" stroke="none" 
	d="
M104.570221,41.594002 
	C105.109901,41.885197 105.424805,42.324760 105.739700,42.764328 
	C105.200043,42.723885 104.660378,42.683437 104.024094,42.362598 
	C104.066780,41.968925 104.206100,41.855652 104.570221,41.594002 
z"/>
<path fill="#000000" opacity="1.000000" stroke="none" 
	d="
M112.814606,48.051350 
	C112.178673,48.114216 111.748772,47.826668 111.318863,47.539124 
	C111.886116,47.593060 112.453369,47.646999 112.814606,48.051350 
z"/>
<path fill="#000000" opacity="1.000000" stroke="none" 
	d="
M60.460777,65.629730 
	C60.785511,65.261520 61.353943,65.208488 61.922371,65.155457 
	C61.516403,65.418610 61.110435,65.681763 60.460777,65.629730 
z"/>
</svg>