<svg version="1.1" id="Layer_1" xmlns="http://www.w3.org/2000/svg" xmlns:xlink="http://www.w3.org/1999/xlink" x="0px" y="0px"
	 width="100%" viewBox="0 0 128 128" enable-background="new 0 0 128 128" xml:space="preserve">
<path fill="#000000" opacity="1.000000" stroke="none" 
	d="
M129.000000,68.000000 
	C129.000000,88.263039 129.000000,108.526085 129.000000,129.000000 
	C107.312897,129.000000 85.625107,129.000000 63.178627,128.684113 
	C66.126472,126.101036 67.683083,122.794846 66.985565,118.526436 
	C65.863556,111.660294 64.725601,104.794922 63.439697,97.958313 
	C62.919662,95.193527 62.684708,91.985291 61.109219,89.888725 
	C57.662502,85.302025 53.266212,81.440903 49.615898,76.989731 
	C47.969910,74.982628 46.148376,72.244690 46.213543,69.888313 
	C46.356194,64.730255 47.653076,59.604111 48.464329,54.553455 
	C53.110012,62.278255 61.461826,65.205086 68.426376,69.784004 
	C69.702530,70.623016 74.343842,69.200867 74.634384,68.090485 
	C75.250580,65.735542 76.393471,62.505711 72.324188,60.612122 
	C61.752895,55.692875 55.167751,47.048714 50.962566,36.310421 
	C49.311558,32.094437 46.947956,28.157511 44.931355,24.138304 
	C50.225731,23.358164 54.728104,20.277128 55.736221,14.331225 
	C56.659336,8.886694 53.663700,4.770226 48.815052,2.115479 
	C48.705853,2.055692 48.930878,1.385475 49.000000,1.000000 
	C75.583664,1.000000 102.167328,1.000000 129.000000,1.000000 
	C129.000000,21.020206 129.000000,41.041443 128.721970,61.816711 
	C122.146942,56.737576 115.755653,51.001534 109.598534,45.024269 
	C107.074226,42.573692 105.188713,42.187607 102.583763,44.875015 
	C96.361359,51.294411 96.417175,49.986195 102.333748,55.761078 
	C103.206596,56.613022 104.517479,57.016186 105.625687,57.626991 
	C105.236923,58.126949 104.848160,58.626907 104.459389,59.126865 
	C98.061768,59.126865 91.664139,59.126865 85.249329,59.126865 
	C85.249329,63.242035 85.249329,66.978424 85.249329,71.111893 
	C91.856171,71.111893 98.225433,71.111893 106.248581,71.111893 
	C103.296173,73.676804 101.484116,75.313629 99.603966,76.868065 
	C97.419762,78.673882 97.475624,80.355789 99.619949,82.160973 
	C100.761131,83.121651 101.807953,84.209946 102.804390,85.323807 
	C104.880638,87.644714 106.825424,87.659378 109.098625,85.464806 
	C114.561768,80.190651 120.115585,75.008957 125.706039,69.869614 
	C126.611610,69.037109 127.892563,68.612923 129.000000,68.000000 
z"/>
<path fill="#FFFFFF" opacity="1.000000" stroke="none" 
	d="
M48.550018,1.000000 
	C48.930878,1.385475 48.705853,2.055692 48.815052,2.115479 
	C53.663700,4.770226 56.659336,8.886694 55.736221,14.331225 
	C54.728104,20.277128 50.225731,23.358164 44.931355,24.138304 
	C46.947956,28.157511 49.311558,32.094437 50.962566,36.310421 
	C55.167751,47.048714 61.752895,55.692875 72.324188,60.612122 
	C76.393471,62.505711 75.250580,65.735542 74.634384,68.090485 
	C74.343842,69.200867 69.702530,70.623016 68.426376,69.784004 
	C61.461826,65.205086 53.110012,62.278255 48.464329,54.553455 
	C47.653076,59.604111 46.356194,64.730255 46.213543,69.888313 
	C46.148376,72.244690 47.969910,74.982628 49.615898,76.989731 
	C53.266212,81.440903 57.662502,85.302025 61.109219,89.888725 
	C62.684708,91.985291 62.919662,95.193527 63.439697,97.958313 
	C64.725601,104.794922 65.863556,111.660294 66.985565,118.526436 
	C67.683083,122.794846 66.126472,126.101036 62.709969,128.684113 
	C60.958332,129.000000 58.916668,129.000000 56.727242,128.686646 
	C55.051888,125.763405 52.944256,123.320488 52.133495,120.504219 
	C50.936390,116.345947 50.799118,111.894989 49.954590,107.619217 
	C49.154350,103.567688 48.958134,98.968857 46.820465,95.709961 
	C43.625259,90.838829 38.961674,86.930870 34.520447,82.183167 
	C33.799782,84.974319 33.212223,86.500259 33.032528,88.072807 
	C32.149086,95.803978 30.582935,103.065880 25.361231,109.445457 
	C20.379683,115.531631 16.412884,122.448372 11.999998,129.000000 
	C10.285642,129.000000 8.571282,129.000000 6.717310,128.696472 
	C4.718465,127.261955 2.859234,126.130974 1.000001,125.000000 
	C1.000000,122.299988 1.000000,119.599968 1.298661,116.738373 
	C5.285183,111.315361 9.237976,106.215385 12.574774,100.740013 
	C15.118571,96.565880 17.649216,92.106422 18.810053,87.432251 
	C20.520700,80.544235 20.893618,73.333542 22.053257,66.296028 
	C22.925714,61.001350 24.138828,55.762802 25.200300,50.499271 
	C24.653236,50.255142 24.106174,50.011017 23.559111,49.766888 
	C22.040651,52.332760 20.098867,54.745983 19.105333,57.501148 
	C17.699499,61.399662 16.988274,65.549263 15.990113,69.594009 
	C15.072576,73.312057 11.968210,73.703590 9.392231,72.765099 
	C7.853292,72.204414 5.804049,69.057251 6.210120,67.780945 
	C9.239659,58.258907 8.933797,47.377335 19.272556,40.904797 
	C27.244225,35.914165 34.089542,29.124386 40.432877,23.952217 
	C38.380108,21.334362 35.158028,18.843250 34.260723,15.690488 
	C33.008163,11.289504 33.672184,6.481016 38.130013,3.320624 
	C38.909809,2.767786 39.384434,1.784491 40.000000,1.000000 
	C42.700012,1.000000 45.400028,1.000000 48.550018,1.000000 
M49.833645,46.291180 
	C51.797466,49.786217 52.239750,54.410671 56.882908,56.738056 
	C54.374081,52.381680 52.226997,48.653442 50.000263,44.183407 
	C47.805172,39.755100 45.728264,35.260422 43.311241,30.956758 
	C42.850235,30.135902 40.475803,29.350569 39.951038,29.767065 
	C35.252319,33.496319 30.770189,37.498474 25.778818,41.802872 
	C25.647150,42.138187 25.515480,42.473507 25.383812,42.808823 
	C25.947477,42.565849 26.511143,42.322876 27.906284,42.005779 
	C30.172817,41.911156 31.282602,41.780487 30.546373,45.173969 
	C27.979500,57.005348 25.993296,68.969757 24.042925,80.925453 
	C22.662888,89.385002 21.430971,97.652908 15.313195,104.508179 
	C11.719808,108.534760 9.077862,113.485596 6.482458,118.277687 
	C5.785833,119.563919 6.828010,121.791893 7.071974,123.587547 
	C8.591050,123.012039 10.515619,122.830650 11.541188,121.775482 
	C13.428251,119.833961 14.918395,117.458824 16.341362,115.122719 
	C21.292608,106.994179 28.144545,99.849136 28.863344,89.551979 
	C29.181789,84.990089 30.381451,80.489716 31.227459,75.698845 
	C32.545979,76.105515 33.514694,76.113945 34.012859,76.602341 
	C39.709759,82.187561 45.371639,87.810265 50.932388,93.530365 
	C51.617111,94.234726 51.794342,95.539917 51.978683,96.606110 
	C53.353718,104.558998 54.696362,112.517746 55.992897,120.483818 
	C56.433678,123.192009 58.017807,124.996948 60.518883,123.790787 
	C61.835991,123.155609 62.897869,120.463264 62.814297,118.761719 
	C62.625816,114.924278 61.882553,111.068146 60.949215,107.323242 
	C59.240990,100.469238 60.410652,92.635017 53.353832,87.578094 
	C50.098862,85.245575 47.614723,81.726288 45.123886,78.481918 
	C43.722088,76.656036 42.018368,74.216965 42.175274,72.187462 
	C42.813240,63.935844 43.999081,55.717331 45.267242,47.530659 
	C45.558083,45.653111 46.877708,43.711430 49.833645,46.291180 
M47.274063,18.973192 
	C48.012703,18.323614 48.802731,17.723295 49.480957,17.015800 
	C52.201591,14.177766 52.132038,11.240465 49.727077,8.235651 
	C47.205631,5.085298 44.152027,5.329697 41.030434,7.017994 
	C37.499577,8.927644 37.084602,12.599341 38.383396,15.465570 
	C39.688774,18.346336 42.544018,20.730576 47.274063,18.973192 
M13.002969,63.502819 
	C14.163439,59.061043 15.323909,54.619267 16.484379,50.177494 
	C16.031834,50.069592 15.579289,49.961693 15.126745,49.853794 
	C13.540475,56.146797 11.954206,62.439804 10.367936,68.732811 
	C10.719253,68.842613 11.070569,68.952423 11.421886,69.062233 
	C11.947388,67.486763 12.472890,65.911301 13.002969,63.502819 
M63.023743,61.333435 
	C63.922302,61.659424 64.820862,61.985413 65.719421,62.311401 
	C65.809372,62.064342 65.899315,61.817280 65.989258,61.570221 
	C65.169868,61.234173 64.350471,60.898125 63.023743,61.333435 
M67.620010,64.085518 
	C68.006111,64.042450 68.392204,63.999374 68.778305,63.956295 
	C68.073174,63.513062 67.368034,63.069828 66.662903,62.626598 
	C66.680008,63.069431 66.697113,63.512264 67.620010,64.085518 
M61.379993,58.914490 
	C60.993893,58.957565 60.607796,59.000641 60.221695,59.043713 
	C60.926830,59.486942 61.631966,59.930168 62.337101,60.373398 
	C62.319996,59.930569 62.302891,59.487736 61.379993,58.914490 
M59.314491,57.048409 
	C58.593166,57.048409 57.871845,57.048409 57.150520,57.048409 
	C57.171196,57.349731 57.191875,57.651058 57.212551,57.952381 
	C58.136620,57.863899 59.060684,57.775417 59.314491,57.048409 
M70.270615,65.948708 
	C70.312309,65.632484 70.471252,65.091927 70.374184,65.041191 
	C70.055313,64.874542 69.643547,64.885643 69.267479,64.828438 
	C69.333496,65.193375 69.399506,65.558319 70.270615,65.948708 
M19.777237,47.693165 
	C19.313086,47.530704 18.851780,47.356953 18.376839,47.237343 
	C18.351677,47.231007 18.211214,47.682491 18.124428,47.920849 
	C18.469681,48.014099 18.814934,48.107353 19.777237,47.693165 
z"/>
<path fill="#000000" opacity="1.000000" stroke="none" 
	d="
M39.531342,1.000000 
	C39.384434,1.784491 38.909809,2.767786 38.130013,3.320624 
	C33.672184,6.481016 33.008163,11.289504 34.260723,15.690488 
	C35.158028,18.843250 38.380108,21.334362 40.432877,23.952217 
	C34.089542,29.124386 27.244225,35.914165 19.272556,40.904797 
	C8.933797,47.377335 9.239659,58.258907 6.210120,67.780945 
	C5.804049,69.057251 7.853292,72.204414 9.392231,72.765099 
	C11.968210,73.703590 15.072576,73.312057 15.990113,69.594009 
	C16.988274,65.549263 17.699499,61.399662 19.105333,57.501148 
	C20.098867,54.745983 22.040651,52.332760 23.559111,49.766888 
	C24.106174,50.011017 24.653236,50.255142 25.200300,50.499271 
	C24.138828,55.762802 22.925714,61.001350 22.053257,66.296028 
	C20.893618,73.333542 20.520700,80.544235 18.810053,87.432251 
	C17.649216,92.106422 15.118571,96.565880 12.574774,100.740013 
	C9.237976,106.215385 5.285183,111.315361 1.298661,116.288391 
	C1.000000,77.775871 1.000000,39.551739 1.000000,1.000000 
	C13.685681,1.000000 26.374182,1.000000 39.531342,1.000000 
z"/>
<path fill="#000000" opacity="1.000000" stroke="none" 
	d="
M12.468657,129.000000 
	C16.412884,122.448372 20.379683,115.531631 25.361231,109.445457 
	C30.582935,103.065880 32.149086,95.803978 33.032528,88.072807 
	C33.212223,86.500259 33.799782,84.974319 34.520447,82.183167 
	C38.961674,86.930870 43.625259,90.838829 46.820465,95.709961 
	C48.958134,98.968857 49.154350,103.567688 49.954590,107.619217 
	C50.799118,111.894989 50.936390,116.345947 52.133495,120.504219 
	C52.944256,123.320488 55.051888,125.763405 56.289742,128.686646 
	C41.645771,129.000000 27.291544,129.000000 12.468657,129.000000 
z"/>
<path fill="#FFFFFF" opacity="1.000000" stroke="none" 
	d="
M129.000000,67.571533 
	C127.892563,68.612923 126.611610,69.037109 125.706039,69.869614 
	C120.115585,75.008957 114.561768,80.190651 109.098625,85.464806 
	C106.825424,87.659378 104.880638,87.644714 102.804390,85.323807 
	C101.807953,84.209946 100.761131,83.121651 99.619949,82.160973 
	C97.475624,80.355789 97.419762,78.673882 99.603966,76.868065 
	C101.484116,75.313629 103.296173,73.676804 106.248581,71.111893 
	C98.225433,71.111893 91.856171,71.111893 85.249329,71.111893 
	C85.249329,66.978424 85.249329,63.242035 85.249329,59.126865 
	C91.664139,59.126865 98.061768,59.126865 104.459389,59.126865 
	C104.848160,58.626907 105.236923,58.126949 105.625687,57.626991 
	C104.517479,57.016186 103.206596,56.613022 102.333748,55.761078 
	C96.417175,49.986195 96.361359,51.294411 102.583763,44.875015 
	C105.188713,42.187607 107.074226,42.573692 109.598534,45.024269 
	C115.755653,51.001534 122.146942,56.737576 128.721970,62.285370 
	C129.000000,63.714359 129.000000,65.428719 129.000000,67.571533 
z"/>
<path fill="#000000" opacity="1.000000" stroke="none" 
	d="
M1.000001,125.500000 
	C2.859234,126.130974 4.718465,127.261955 6.288848,128.696472 
	C4.135378,128.329926 0.251771,131.024826 1.000001,125.500000 
z"/>
<path fill="#000000" opacity="1.000000" stroke="none" 
	d="
M26.224354,41.420357 
	C30.770189,37.498474 35.252319,33.496319 39.951038,29.767065 
	C40.475803,29.350569 42.850235,30.135902 43.311241,30.956758 
	C45.728264,35.260422 47.805172,39.755100 49.858871,44.753342 
	C49.606556,45.464333 49.495632,45.605392 49.384705,45.746449 
	C46.877708,43.711430 45.558083,45.653111 45.267242,47.530659 
	C43.999081,55.717331 42.813240,63.935844 42.175274,72.187462 
	C42.018368,74.216965 43.722088,76.656036 45.123886,78.481918 
	C47.614723,81.726288 50.098862,85.245575 53.353832,87.578094 
	C60.410652,92.635017 59.240990,100.469238 60.949215,107.323242 
	C61.882553,111.068146 62.625816,114.924278 62.814297,118.761719 
	C62.897869,120.463264 61.835991,123.155609 60.518883,123.790787 
	C58.017807,124.996948 56.433678,123.192009 55.992897,120.483818 
	C54.696362,112.517746 53.353718,104.558998 51.978683,96.606110 
	C51.794342,95.539917 51.617111,94.234726 50.932388,93.530365 
	C45.371639,87.810265 39.709759,82.187561 34.012859,76.602341 
	C33.514694,76.113945 32.545979,76.105515 31.227459,75.698845 
	C30.381451,80.489716 29.181789,84.990089 28.863344,89.551979 
	C28.144545,99.849136 21.292608,106.994179 16.341362,115.122719 
	C14.918395,117.458824 13.428251,119.833961 11.541188,121.775482 
	C10.515619,122.830650 8.591050,123.012039 7.071974,123.587547 
	C6.828010,121.791893 5.785833,119.563919 6.482458,118.277687 
	C9.077862,113.485596 11.719808,108.534760 15.313195,104.508179 
	C21.430971,97.652908 22.662888,89.385002 24.042925,80.925453 
	C25.993296,68.969757 27.979500,57.005348 30.546373,45.173969 
	C31.282602,41.780487 30.172817,41.911156 27.285366,41.868370 
	C26.517750,41.627426 26.371052,41.523895 26.224354,41.420357 
z"/>
<path fill="#000000" opacity="1.000000" stroke="none" 
	d="
M46.893745,19.007847 
	C42.544018,20.730576 39.688774,18.346336 38.383396,15.465570 
	C37.084602,12.599341 37.499577,8.927644 41.030434,7.017994 
	C44.152027,5.329697 47.205631,5.085298 49.727077,8.235651 
	C52.132038,11.240465 52.201591,14.177766 49.480957,17.015800 
	C48.802731,17.723295 48.012703,18.323614 46.893745,19.007847 
z"/>
<path fill="#000000" opacity="1.000000" stroke="none" 
	d="
M13.000681,63.919327 
	C12.472890,65.911301 11.947388,67.486763 11.421886,69.062233 
	C11.070569,68.952423 10.719253,68.842613 10.367936,68.732811 
	C11.954206,62.439804 13.540475,56.146797 15.126745,49.853794 
	C15.579289,49.961693 16.031834,50.069592 16.484379,50.177494 
	C15.323909,54.619267 14.163439,59.061043 13.000681,63.919327 
z"/>
<path fill="#000000" opacity="1.000000" stroke="none" 
	d="
M49.898697,45.124237 
	C52.226997,48.653442 54.374081,52.381680 56.882908,56.738056 
	C52.239750,54.410671 51.797466,49.786217 49.609177,46.018814 
	C49.495632,45.605392 49.606556,45.464333 49.898697,45.124237 
z"/>
<path fill="#000000" opacity="1.000000" stroke="none" 
	d="
M63.277409,60.947758 
	C64.350471,60.898125 65.169868,61.234173 65.989258,61.570221 
	C65.899315,61.817280 65.809372,62.064342 65.719421,62.311401 
	C64.820862,61.985413 63.922302,61.659424 63.277409,60.947758 
z"/>
<path fill="#000000" opacity="1.000000" stroke="none" 
	d="
M67.167114,64.020309 
	C66.697113,63.512264 66.680008,63.069431 66.662903,62.626598 
	C67.368034,63.069828 68.073174,63.513062 68.778305,63.956299 
	C68.392204,63.999374 68.006111,64.042450 67.167114,64.020309 
z"/>
<path fill="#000000" opacity="1.000000" stroke="none" 
	d="
M61.832893,58.979698 
	C62.302891,59.487736 62.319996,59.930569 62.337097,60.373398 
	C61.631966,59.930168 60.926830,59.486942 60.221695,59.043716 
	C60.607796,59.000641 60.993893,58.957565 61.832893,58.979698 
z"/>
<path fill="#000000" opacity="1.000000" stroke="none" 
	d="
M59.649620,57.367672 
	C59.060684,57.775417 58.136620,57.863899 57.212551,57.952381 
	C57.191875,57.651058 57.171196,57.349731 57.150520,57.048409 
	C57.871845,57.048409 58.593166,57.048409 59.649620,57.367672 
z"/>
<path fill="#000000" opacity="1.000000" stroke="none" 
	d="
M69.868065,65.935982 
	C69.399506,65.558319 69.333496,65.193375 69.267479,64.828438 
	C69.643547,64.885643 70.055313,64.874542 70.374184,65.041191 
	C70.471252,65.091927 70.312309,65.632484 69.868065,65.935982 
z"/>
<path fill="#000000" opacity="1.000000" stroke="none" 
	d="
M19.468712,47.946884 
	C18.814934,48.107353 18.469681,48.014099 18.124428,47.920849 
	C18.211214,47.682491 18.351677,47.231007 18.376839,47.237343 
	C18.851780,47.356953 19.313086,47.530704 19.468712,47.946884 
z"/>
<path fill="#000000" opacity="1.000000" stroke="none" 
	d="
M26.869627,41.905434 
	C26.511143,42.322876 25.947477,42.565849 25.383812,42.808823 
	C25.515480,42.473507 25.647150,42.138187 26.001587,41.611618 
	C26.371052,41.523895 26.517750,41.627426 26.869627,41.905434 
z"/>
</svg>