<?xml version="1.0" encoding="UTF-8"?>
<svg version="1.1" xmlns="http://www.w3.org/2000/svg" width="621" height="313">
<path d="M0 0 C8.64453709 7.11535905 14.16159984 15.3431301 15.67578125 26.578125 C16.41276116 37.99150591 12.75941538 47.02033354 7.46484375 56.9765625 C3.63176422 64.38285177 2.47009365 70.35642864 2.65307617 78.6027832 C2.66632725 82.73849178 2.3715352 84.51946331 -0.23828125 87.8125 C-2.8359375 89.78125 -2.8359375 89.78125 -4.8359375 89.78125 C-4.67931641 91.64716797 -4.67931641 91.64716797 -4.51953125 93.55078125 C-4.05039704 101.38673939 -3.63027614 108.66471402 -8.0859375 115.46875 C-12.72800794 120.17734693 -17.46092596 120.96476614 -23.8359375 121.15625 C-30.21094904 120.96476614 -34.94386706 120.17734693 -39.5859375 115.46875 C-44.67322789 107.70018231 -43.58069794 98.65401332 -42.8359375 89.78125 C-43.6196875 89.513125 -44.4034375 89.245 -45.2109375 88.96875 C-47.8359375 87.78125 -47.8359375 87.78125 -49.8359375 84.78125 C-49.86936571 82.93225214 -49.89389087 81.08237174 -49.85913086 79.23339844 C-49.7340719 67.02237884 -54.38764856 57.75448197 -59.7512207 47.01904297 C-63.92952863 38.39910814 -64.24645349 28.6698119 -62.03125 19.421875 C-57.79427104 8.1427448 -49.69107666 -0.13762103 -38.8359375 -5.21875 C-25.87543405 -9.9709346 -11.14930556 -8.03695525 0 0 Z M-40.8359375 2.78125 C-41.47015625 3.12027344 -42.104375 3.45929688 -42.7578125 3.80859375 C-49.82818189 8.204111 -54.4175567 15.50599769 -56.8359375 23.34375 C-59.28784238 34.28537553 -55.39620667 43.1729806 -50.20703125 52.8046875 C-46.3044812 60.27125314 -45.14385335 66.37450325 -45.23730469 74.68994141 C-45.2329437 77.99484447 -45.21756818 80.23546867 -43.29150391 82.98999023 C-39.98225747 85.40398319 -37.09398162 85.35746283 -33.1484375 85.3125 C-32.40891846 85.3163269 -31.66939941 85.32015381 -30.9074707 85.32409668 C-29.3474796 85.32681271 -27.78744272 85.31947292 -26.22753906 85.30273438 C-23.84336564 85.28131673 -21.46220501 85.30254263 -19.078125 85.328125 C-17.5598892 85.32548166 -16.04165527 85.32035656 -14.5234375 85.3125 C-13.45766479 85.32464539 -13.45766479 85.32464539 -12.37036133 85.33703613 C-8.99295536 85.27323842 -7.12308669 84.99227364 -4.37158203 82.97021484 C-2.1146569 79.7531098 -2.5865054 76.67329827 -2.7109375 72.90625 C-2.65012387 62.63301421 1.28788324 54.68665353 5.81640625 45.64453125 C9.92083427 37.40070332 11.32560031 30.34076821 8.375 21.38671875 C3.99352831 10.93174362 -2.16448151 4.66336713 -12.5234375 -0.09375 C-21.99240346 -3.25007199 -32.20577821 -1.92187637 -40.8359375 2.78125 Z M-37.8359375 89.78125 C-37.8359375 91.10125 -37.8359375 92.42125 -37.8359375 93.78125 C-28.39230143 93.23587284 -19.18155718 92.24416615 -9.8359375 90.78125 C-9.8359375 90.45125 -9.8359375 90.12125 -9.8359375 89.78125 C-19.0759375 89.78125 -28.3159375 89.78125 -37.8359375 89.78125 Z M-23.7109375 93.78125 C-24.39929688 93.87664062 -25.08765625 93.97203125 -25.796875 94.0703125 C-27.4770691 94.30367279 -29.15657878 94.54195206 -30.8359375 94.78125 C-30.8359375 95.11125 -30.8359375 95.44125 -30.8359375 95.78125 C-28.46155501 96.1195844 -26.08658791 96.45204002 -23.7109375 96.78125 C-23.04578125 96.87664062 -22.380625 96.97203125 -21.6953125 97.0703125 C-17.70964769 97.61736453 -13.85733812 97.88147182 -9.8359375 97.78125 C-9.8359375 96.13125 -9.8359375 94.48125 -9.8359375 92.78125 C-14.54061925 92.66399936 -19.06375852 93.1147941 -23.7109375 93.78125 Z M-37.8359375 96.78125 C-37.8359375 98.43125 -37.8359375 100.08125 -37.8359375 101.78125 C-31.5659375 101.12125 -25.2959375 100.46125 -18.8359375 99.78125 C-22.96321112 97.71761319 -26.10433401 97.35957417 -30.5859375 97.15625 C-31.28332031 97.11757812 -31.98070312 97.07890625 -32.69921875 97.0390625 C-34.41104568 96.94526376 -36.12345432 96.86218826 -37.8359375 96.78125 Z M-20.4609375 100.78125 C-21.66363281 100.92433594 -21.66363281 100.92433594 -22.890625 101.0703125 C-24.87251984 101.30625236 -26.854245 101.54361664 -28.8359375 101.78125 C-25.12772122 104.13233558 -21.34988512 104.21280058 -17.0859375 104.40625 C-16.38855469 104.44492188 -15.69117188 104.48359375 -14.97265625 104.5234375 C-13.26082932 104.61723624 -11.54842068 104.70031174 -9.8359375 104.78125 C-9.8359375 103.13125 -9.8359375 101.48125 -9.8359375 99.78125 C-13.39707556 99.78125 -16.92858949 100.35690949 -20.4609375 100.78125 Z M-37.8359375 103.78125 C-36.8459375 105.43125 -35.8559375 107.08125 -34.8359375 108.78125 C-25.9259375 107.79125 -25.9259375 107.79125 -16.8359375 106.78125 C-16.8359375 106.45125 -16.8359375 106.12125 -16.8359375 105.78125 C-19.21031999 105.4429156 -21.58528709 105.11045998 -23.9609375 104.78125 C-24.62609375 104.68585938 -25.29125 104.59046875 -25.9765625 104.4921875 C-29.96222731 103.94513547 -33.81453688 103.68102818 -37.8359375 103.78125 Z M-24.8359375 108.78125 C-24.8359375 109.44125 -24.8359375 110.10125 -24.8359375 110.78125 C-21.82605478 111.36177245 -18.90704348 111.84114746 -15.8359375 111.78125 C-13.69339178 110.01458021 -13.69339178 110.01458021 -12.8359375 107.78125 C-16.9294068 107.65720548 -20.79452556 108.14730303 -24.8359375 108.78125 Z M-31.8359375 111.78125 C-31.5059375 112.44125 -31.1759375 113.10125 -30.8359375 113.78125 C-27.2059375 113.78125 -23.5759375 113.78125 -19.8359375 113.78125 C-19.8359375 113.45125 -19.8359375 113.12125 -19.8359375 112.78125 C-23.7959375 112.45125 -27.7559375 112.12125 -31.8359375 111.78125 Z " fill="#FFFFFF" transform="translate(138.8359375,101.21875)"/>
</svg>
