<?xml version="1.0" encoding="UTF-8"?>
<svg version="1.1" xmlns="http://www.w3.org/2000/svg" width="621" height="313">
<path d="M0 0 C8.64453709 7.11535905 14.16159984 15.3431301 15.67578125 26.578125 C16.41276116 37.99150591 12.75941538 47.02033354 7.46484375 56.9765625 C3.63176422 64.38285177 2.47009365 70.35642864 2.65307617 78.6027832 C2.66632725 82.73849178 2.3715352 84.51946331 -0.23828125 87.8125 C-2.8359375 89.78125 -2.8359375 89.78125 -4.8359375 89.78125 C-4.67931641 91.64716797 -4.67931641 91.64716797 -4.51953125 93.55078125 C-4.05039704 101.38673939 -3.63027614 108.66471402 -8.0859375 115.46875 C-12.72800794 120.17734693 -17.46092596 120.96476614 -23.8359375 121.15625 C-30.21094904 120.96476614 -34.94386706 120.17734693 -39.5859375 115.46875 C-44.67322789 107.70018231 -43.58069794 98.65401332 -42.8359375 89.78125 C-43.6196875 89.513125 -44.4034375 89.245 -45.2109375 88.96875 C-47.8359375 87.78125 -47.8359375 87.78125 -49.8359375 84.78125 C-49.86936571 82.93225214 -49.89389087 81.08237174 -49.85913086 79.23339844 C-49.7340719 67.02237884 -54.38764856 57.75448197 -59.7512207 47.01904297 C-63.92952863 38.39910814 -64.24645349 28.6698119 -62.03125 19.421875 C-57.79427104 8.1427448 -49.69107666 -0.13762103 -38.8359375 -5.21875 C-25.87543405 -9.9709346 -11.14930556 -8.03695525 0 0 Z M-37.8359375 89.78125 C-37.8359375 91.10125 -37.8359375 92.42125 -37.8359375 93.78125 C-28.39230143 93.23587284 -19.18155718 92.24416615 -9.8359375 90.78125 C-9.8359375 90.45125 -9.8359375 90.12125 -9.8359375 89.78125 C-19.0759375 89.78125 -28.3159375 89.78125 -37.8359375 89.78125 Z M-23.7109375 93.78125 C-24.39929688 93.87664062 -25.08765625 93.97203125 -25.796875 94.0703125 C-27.4770691 94.30367279 -29.15657878 94.54195206 -30.8359375 94.78125 C-30.8359375 95.11125 -30.8359375 95.44125 -30.8359375 95.78125 C-28.46155501 96.1195844 -26.08658791 96.45204002 -23.7109375 96.78125 C-23.04578125 96.87664062 -22.380625 96.97203125 -21.6953125 97.0703125 C-17.70964769 97.61736453 -13.85733812 97.88147182 -9.8359375 97.78125 C-9.8359375 96.13125 -9.8359375 94.48125 -9.8359375 92.78125 C-14.54061925 92.66399936 -19.06375852 93.1147941 -23.7109375 93.78125 Z M-37.8359375 96.78125 C-37.8359375 98.43125 -37.8359375 100.08125 -37.8359375 101.78125 C-31.5659375 101.12125 -25.2959375 100.46125 -18.8359375 99.78125 C-22.96321112 97.71761319 -26.10433401 97.35957417 -30.5859375 97.15625 C-31.28332031 97.11757812 -31.98070312 97.07890625 -32.69921875 97.0390625 C-34.41104568 96.94526376 -36.12345432 96.86218826 -37.8359375 96.78125 Z M-20.4609375 100.78125 C-21.66363281 100.92433594 -21.66363281 100.92433594 -22.890625 101.0703125 C-24.87251984 101.30625236 -26.854245 101.54361664 -28.8359375 101.78125 C-25.12772122 104.13233558 -21.34988512 104.21280058 -17.0859375 104.40625 C-16.38855469 104.44492188 -15.69117188 104.48359375 -14.97265625 104.5234375 C-13.26082932 104.61723624 -11.54842068 104.70031174 -9.8359375 104.78125 C-9.8359375 103.13125 -9.8359375 101.48125 -9.8359375 99.78125 C-13.39707556 99.78125 -16.92858949 100.35690949 -20.4609375 100.78125 Z M-37.8359375 103.78125 C-36.8459375 105.43125 -35.8559375 107.08125 -34.8359375 108.78125 C-25.9259375 107.79125 -25.9259375 107.79125 -16.8359375 106.78125 C-16.8359375 106.45125 -16.8359375 106.12125 -16.8359375 105.78125 C-19.21031999 105.4429156 -21.58528709 105.11045998 -23.9609375 104.78125 C-24.62609375 104.68585938 -25.29125 104.59046875 -25.9765625 104.4921875 C-29.96222731 103.94513547 -33.81453688 103.68102818 -37.8359375 103.78125 Z M-24.8359375 108.78125 C-24.8359375 109.44125 -24.8359375 110.10125 -24.8359375 110.78125 C-21.82605478 111.36177245 -18.90704348 111.84114746 -15.8359375 111.78125 C-13.69339178 110.01458021 -13.69339178 110.01458021 -12.8359375 107.78125 C-16.9294068 107.65720548 -20.79452556 108.14730303 -24.8359375 108.78125 Z M-31.8359375 111.78125 C-31.5059375 112.44125 -31.1759375 113.10125 -30.8359375 113.78125 C-27.2059375 113.78125 -23.5759375 113.78125 -19.8359375 113.78125 C-19.8359375 113.45125 -19.8359375 113.12125 -19.8359375 112.78125 C-23.7959375 112.45125 -27.7559375 112.12125 -31.8359375 111.78125 Z " fill="#FECD09" transform="translate(138.8359375,101.21875)"/>
<path d="M0 0 C8.64453709 7.11535905 14.16159984 15.3431301 15.67578125 26.578125 C16.41276116 37.99150591 12.75941538 47.02033354 7.46484375 56.9765625 C3.63176422 64.38285177 2.47009365 70.35642864 2.65307617 78.6027832 C2.66632725 82.73849178 2.3715352 84.51946331 -0.23828125 87.8125 C-2.8359375 89.78125 -2.8359375 89.78125 -4.8359375 89.78125 C-4.67931641 91.64716797 -4.67931641 91.64716797 -4.51953125 93.55078125 C-4.05039704 101.38673939 -3.63027614 108.66471402 -8.0859375 115.46875 C-12.72800794 120.17734693 -17.46092596 120.96476614 -23.8359375 121.15625 C-30.21094904 120.96476614 -34.94386706 120.17734693 -39.5859375 115.46875 C-44.67322789 107.70018231 -43.58069794 98.65401332 -42.8359375 89.78125 C-43.6196875 89.513125 -44.4034375 89.245 -45.2109375 88.96875 C-47.8359375 87.78125 -47.8359375 87.78125 -49.8359375 84.78125 C-49.86936571 82.93225214 -49.89389087 81.08237174 -49.85913086 79.23339844 C-49.7340719 67.02237884 -54.38764856 57.75448197 -59.7512207 47.01904297 C-63.92952863 38.39910814 -64.24645349 28.6698119 -62.03125 19.421875 C-57.79427104 8.1427448 -49.69107666 -0.13762103 -38.8359375 -5.21875 C-25.87543405 -9.9709346 -11.14930556 -8.03695525 0 0 Z M-52.29296875 12.58984375 C-57.27110942 19.66006379 -59.14842214 27.22707376 -57.8359375 35.78125 C-56.16514382 41.56988474 -53.80485616 46.95764308 -50.98046875 52.2734375 C-46.21611641 61.30391726 -45.03365615 68.75069109 -45.00390625 78.95703125 C-45.26637526 82.80107745 -45.26637526 82.80107745 -42.8359375 84.78125 C-39.99053608 84.98115227 -37.24455966 85.06101976 -34.3984375 85.046875 C-33.1446228 85.04974518 -33.1446228 85.04974518 -31.86547852 85.05267334 C-30.09683939 85.05403536 -28.32819027 85.05033776 -26.55957031 85.04199219 C-23.84677756 85.03129275 -21.13464706 85.04188676 -18.421875 85.0546875 C-16.7057277 85.05336591 -14.98958081 85.05080352 -13.2734375 85.046875 C-12.45883057 85.05092346 -11.64422363 85.05497192 -10.80493164 85.05914307 C-6.34885965 85.20690435 -6.34885965 85.20690435 -2.8359375 82.78125 C-2.80208112 80.84297231 -2.7786948 78.90385048 -2.81274414 76.96557617 C-2.93232802 64.41430426 1.50748471 55.0412506 7.07910156 44.01220703 C10.92385565 36.10640981 11.61085898 28.08189277 8.7265625 19.71875 C3.88025055 9.00225738 -4.56432255 2.5576848 -15.2734375 -1.53125 C-30.56884856 -4.48299599 -42.5023768 0.78288274 -52.29296875 12.58984375 Z M-37.8359375 89.78125 C-37.8359375 91.10125 -37.8359375 92.42125 -37.8359375 93.78125 C-28.39230143 93.23587284 -19.18155718 92.24416615 -9.8359375 90.78125 C-9.8359375 90.45125 -9.8359375 90.12125 -9.8359375 89.78125 C-19.0759375 89.78125 -28.3159375 89.78125 -37.8359375 89.78125 Z M-23.7109375 93.78125 C-24.39929688 93.87664062 -25.08765625 93.97203125 -25.796875 94.0703125 C-27.4770691 94.30367279 -29.15657878 94.54195206 -30.8359375 94.78125 C-30.8359375 95.11125 -30.8359375 95.44125 -30.8359375 95.78125 C-28.46155501 96.1195844 -26.08658791 96.45204002 -23.7109375 96.78125 C-23.04578125 96.87664062 -22.380625 96.97203125 -21.6953125 97.0703125 C-17.70964769 97.61736453 -13.85733812 97.88147182 -9.8359375 97.78125 C-9.8359375 96.13125 -9.8359375 94.48125 -9.8359375 92.78125 C-14.54061925 92.66399936 -19.06375852 93.1147941 -23.7109375 93.78125 Z M-37.8359375 96.78125 C-37.8359375 98.43125 -37.8359375 100.08125 -37.8359375 101.78125 C-31.5659375 101.12125 -25.2959375 100.46125 -18.8359375 99.78125 C-22.96321112 97.71761319 -26.10433401 97.35957417 -30.5859375 97.15625 C-31.28332031 97.11757812 -31.98070312 97.07890625 -32.69921875 97.0390625 C-34.41104568 96.94526376 -36.12345432 96.86218826 -37.8359375 96.78125 Z M-20.4609375 100.78125 C-21.66363281 100.92433594 -21.66363281 100.92433594 -22.890625 101.0703125 C-24.87251984 101.30625236 -26.854245 101.54361664 -28.8359375 101.78125 C-25.12772122 104.13233558 -21.34988512 104.21280058 -17.0859375 104.40625 C-16.38855469 104.44492188 -15.69117188 104.48359375 -14.97265625 104.5234375 C-13.26082932 104.61723624 -11.54842068 104.70031174 -9.8359375 104.78125 C-9.8359375 103.13125 -9.8359375 101.48125 -9.8359375 99.78125 C-13.39707556 99.78125 -16.92858949 100.35690949 -20.4609375 100.78125 Z M-37.8359375 103.78125 C-36.8459375 105.43125 -35.8559375 107.08125 -34.8359375 108.78125 C-25.9259375 107.79125 -25.9259375 107.79125 -16.8359375 106.78125 C-16.8359375 106.45125 -16.8359375 106.12125 -16.8359375 105.78125 C-19.21031999 105.4429156 -21.58528709 105.11045998 -23.9609375 104.78125 C-24.62609375 104.68585938 -25.29125 104.59046875 -25.9765625 104.4921875 C-29.96222731 103.94513547 -33.81453688 103.68102818 -37.8359375 103.78125 Z M-24.8359375 108.78125 C-24.8359375 109.44125 -24.8359375 110.10125 -24.8359375 110.78125 C-21.82605478 111.36177245 -18.90704348 111.84114746 -15.8359375 111.78125 C-13.69339178 110.01458021 -13.69339178 110.01458021 -12.8359375 107.78125 C-16.9294068 107.65720548 -20.79452556 108.14730303 -24.8359375 108.78125 Z M-31.8359375 111.78125 C-31.5059375 112.44125 -31.1759375 113.10125 -30.8359375 113.78125 C-27.2059375 113.78125 -23.5759375 113.78125 -19.8359375 113.78125 C-19.8359375 113.45125 -19.8359375 113.12125 -19.8359375 112.78125 C-23.7959375 112.45125 -27.7559375 112.12125 -31.8359375 111.78125 Z " fill="#FEFEFB" transform="translate(138.8359375,101.21875)"/>
</svg>
