<?xml version="1.0" encoding="UTF-8"?>
<svg version="1.1" xmlns="http://www.w3.org/2000/svg" width="200" height="200">
<path d="M0 0 C3.5731886 2.79029896 6.8158426 5.77639286 10 9 C10.63550781 9.61359375 11.27101563 10.2271875 11.92578125 10.859375 C23.65695964 23.03274858 27.52483861 39.41884423 27.42211914 55.83276367 C26.89769664 73.02178573 19.87928055 87.68344532 8 100 C1.0193679 106.14143043 -6.29300405 110.75397081 -15 114 C-15.77859375 114.31839844 -16.5571875 114.63679688 -17.359375 114.96484375 C-32.43818249 120.17519602 -51.46394051 118.25233569 -65.60375977 111.43603516 C-81.20923285 103.48060889 -91.68738211 91.25556916 -98 75 C-98.32097656 74.20722656 -98.64195313 73.41445312 -98.97265625 72.59765625 C-104.10936805 57.47422103 -101.8614771 39.39270166 -95.71484375 24.98828125 C-92.22520094 18.01871609 -87.48139051 12.49052616 -82 7 C-81.2884375 6.27683594 -80.576875 5.55367187 -79.84375 4.80859375 C-58.27138243 -15.78676442 -24.07287861 -16.09081886 0 0 Z M-83 14 C-92.2279704 24.89036212 -97.4205303 38.48691384 -97.3125 52.75 C-97.30686035 53.53713379 -97.3012207 54.32426758 -97.29541016 55.13525391 C-96.96006605 71.37454105 -90.33577737 85.41469294 -79 97 C-64.14748744 109.72452099 -48.61963621 114.24734482 -29.35302734 113.21142578 C-14.94617589 111.91693176 -2.97981992 103.94455553 7 94 C7.56460938 93.45859375 8.12921875 92.9171875 8.7109375 92.359375 C19.10996432 81.46515643 23.5295507 65.61965894 23.34960938 50.92675781 C22.79296656 35.18279281 16.20739542 20.81029197 5.0859375 9.76171875 C-7.68812558 -2.09873011 -22.95625281 -7.40705007 -40.28515625 -7.20703125 C-57.53894961 -6.24546338 -71.46725134 1.60915993 -83 14 Z " fill="#FFFFFF" transform="translate(137,47)"/>
<path d="M0 0 C6.28453841 4.87657802 11.71570924 10.28298893 16 17 C16.37769531 17.58910156 16.75539063 18.17820312 17.14453125 18.78515625 C24.0894487 31.03630277 24.19704294 44.82666975 20.83886719 58.04833984 C16.86823528 72.30835038 7.50288563 81.97570334 -5.0703125 89.1875 C-16.78468822 95.43516705 -31.32998355 95.98212212 -44 92.375 C-59.08830388 86.99039723 -68.97940902 77.31192979 -76.17578125 63.1796875 C-80.72275333 51.15499356 -81.13123764 35.64583187 -76.328125 23.671875 C-68.69947265 8.32482145 -58.71323265 -0.57749463 -42.54296875 -6.23828125 C-28.27638022 -10.51168334 -12.49575915 -8.04439447 0 0 Z M-66.05078125 12.42578125 C-74.41093795 23.93666082 -78.00288718 35.5452337 -76.53515625 49.80078125 C-74.5410121 61.72197873 -68.46946543 73.3530309 -59 81 C-55.79015099 83.28097147 -52.50076925 85.20034529 -49 87 C-48.20207031 87.41636719 -47.40414062 87.83273438 -46.58203125 88.26171875 C-36.30654126 92.80205154 -23.11136425 92.62311065 -12.4375 89.4375 C1.14683548 84.04929989 10.79852681 74.04392551 17 61 C21.931599 47.3727547 20.81559516 34.01008756 14.875 20.875 C8.4634329 8.986886 -1.65564349 0.97625191 -14.3125 -3.4375 C-33.31657519 -8.66756577 -53.29306072 -2.6647796 -66.05078125 12.42578125 Z " fill="#FFFFFF" transform="translate(128,57)"/>
<path d="M0 0 C3.15576082 2.07993327 4.34779653 3.30699132 5.75 6.8125 C6.29333853 11.70254676 6.27109104 13.80753871 4 18.1875 C0.6038211 22.14970871 -0.90778181 22.68260792 -6.125 23.1875 C-10.43785966 23.07485068 -12.95279071 21.63867939 -16.25 18.8125 C-18.59781141 15.82437638 -18.66825081 12.59338812 -18.5703125 8.84375 C-17.92496059 4.75127448 -15.67442851 1.89310094 -12.4375 -0.5625 C-7.97059472 -1.83875865 -4.34127591 -1.58623543 0 0 Z " fill="#FFFFFF" transform="translate(123.25,118.1875)"/>
<path d="M0 0 C3.70390021 2.02666238 5.65363011 3.48044516 8 7 C8.66535838 11.06919178 8.92277334 15.22543589 6.984375 18.953125 C3.76204714 22.9519174 1.2668989 23.85219513 -3.75 24.4375 C-8.08328124 24.35740238 -10.55994142 22.89277396 -13.64453125 19.9140625 C-16.0584713 16.50532871 -16.40870946 13.09466324 -16 9 C-14.5797027 5.73331621 -12.73781644 3.2815137 -10 1 C-6.38069302 -0.20643566 -3.80768995 -0.32268559 0 0 Z " fill="#FFFFFF" transform="translate(86,117)"/>
<path d="M0 0 C3.13921957 2.60488433 5.69148327 4.79630908 6.2734375 8.953125 C6.46329043 13.24672199 6.4342668 16.09582964 3.625 19.5 C-0.42408255 23.3562691 -3.09329411 23.34389054 -8.51953125 23.28125 C-12.06688108 22.87903081 -13.68718177 21.67419608 -16 19 C-18.03969799 15.30911793 -18.51184637 12.18007873 -18 8 C-14.15497643 0.45783838 -8.12166336 -2.79077733 0 0 Z " fill="#FFFFFF" transform="translate(139,89)"/>
<path d="M0 0 C3.27648383 2.37976194 5.55836026 5.06919485 6.47265625 9.06640625 C6.66598116 13.49606823 5.74138299 16.57327126 3 20 C-0.81208642 23.40689719 -3.62894945 23.50889847 -8.58984375 23.35546875 C-12.02979826 22.84811728 -13.71319039 21.57266081 -16 19 C-18.52013745 15.51981019 -18.36793894 12.19450396 -18 8 C-16.32375739 4.31226627 -14.42746406 2.14216504 -11 0 C-7.10363088 -1.29878971 -3.86277603 -1.28759201 0 0 Z " fill="#FFFFFF" transform="translate(72,89)"/>
<path d="M0 0 C2.78396446 2.94772708 4.04949346 5.06475179 4.19140625 9.171875 C3.9382602 13.25289622 3.37517796 14.94850348 0.6875 18.1875 C-3.19146313 21.30959227 -5.6712742 21.64083049 -10.546875 21.609375 C-14.46504236 21.00455722 -16.17858816 19.08123243 -18.875 16.25 C-20.72743916 12.54512168 -20.3335162 8.29385812 -19.875 4.25 C-18.10122661 1.09662509 -16.67837044 -0.2590514 -13.625 -2.125 C-8.54707907 -3.27907294 -4.45174418 -2.70975732 0 0 Z " fill="#FFFFFF" transform="translate(107.875,90.75)"/>
<path d="M0 0 C3.12001504 1.68818449 5.39047471 3.78094941 7 7 C7.42794952 11.18896746 7.40377171 14.90744125 5.9375 18.875 C3.32725113 21.7378536 0.77705102 23.29678705 -3 24 C-7.62539456 23.82060021 -10.95680013 22.88671989 -14.5 19.875 C-16.40834628 16.2173363 -17.21059059 13.13081539 -17 9 C-13.95609245 0.50909998 -8.51668522 -1.4753313 0 0 Z " fill="#FFFFFF" transform="translate(87,60)"/>
<path d="M0 0 C3.50252011 2.04313673 5.77361702 4.09787233 7 8 C7.45522199 13.00744188 7.1111205 15.99998792 4 20 C0.71721948 23.28278052 -2.41627533 23.84194053 -7 24 C-10.62525975 22.60566933 -13.5677556 21.07230872 -16 18 C-17.50650776 13.48047673 -17.74563919 9.64040622 -15.75 5.25 C-11.31868285 -0.44740776 -6.9207316 -1.02072379 0 0 Z " fill="#FFFFFF" transform="translate(122,60)"/>
</svg>
