<?xml version="1.0" encoding="UTF-8"?>
<svg version="1.1" xmlns="http://www.w3.org/2000/svg" width="128" height="128">
<path d="M0 0 C0.99 0.33 1.98 0.66 3 1 C3 4.63 3 8.26 3 12 C4.32 12 5.64 12 7 12 C7.33 10.68 7.66 9.36 8 8 C18.67419698 7.97687672 29.34838806 7.95908499 40.02260494 7.94818783 C44.97853922 7.94295897 49.93445642 7.93586126 54.89038086 7.92456055 C59.66898836 7.91373178 64.44757938 7.90772319 69.2261982 7.90512276 C71.05353619 7.90326849 72.88087324 7.89964784 74.70820427 7.89426994 C77.25853329 7.88705964 79.80879337 7.88600905 82.35913086 7.88647461 C83.12229614 7.88287933 83.88546143 7.87928406 84.67175293 7.87557983 C89.88594784 7.88594784 89.88594784 7.88594784 91 9 C91.30812861 12.76256903 91.27842143 16.53886644 91.3125 20.3125 C91.35600586 21.90094727 91.35600586 21.90094727 91.40039062 23.52148438 C91.40876953 24.54177734 91.41714844 25.56207031 91.42578125 26.61328125 C91.44036377 27.54954346 91.45494629 28.48580566 91.4699707 29.45043945 C90.85831972 32.76860633 89.59027616 33.90750351 87 36 C76.64749175 40.35597342 65.25431532 39.61155352 54.875 35.875 C47.80212571 33.72238608 43.54478424 35.17897231 37 38 C28.07630162 39.99359219 18.76620159 38.74760725 10.25 35.625 C8 34 8 34 7.125 31.8125 C7.08375 31.214375 7.0425 30.61625 7 30 C5.68 30 4.36 30 3 30 C3 32.97 3 35.94 3 39 C1.68 39 0.36 39 -1 39 C-1.02464849 33.60653012 -1.04283531 28.21309275 -1.05493164 22.81958008 C-1.05997231 20.98331125 -1.06680477 19.14704646 -1.07543945 17.31079102 C-1.08751672 14.67723599 -1.09323081 12.04373384 -1.09765625 9.41015625 C-1.10281754 8.58411392 -1.10797882 7.75807159 -1.11329651 6.90699768 C-1.11349205 4.93763632 -1.06204152 2.96838386 -1 1 C-0.67 0.67 -0.34 0.34 0 0 Z M3 22 C7 23 7 23 7 23 Z " fill="#FFFFFF" transform="translate(1,89)"/>
<path d="M0 0 C0.99 0.33 1.98 0.66 3 1 C3 20.8 3 40.6 3 61 C1.68 61 0.36 61 -1 61 C-1 58.03 -1 55.06 -1 52 C-11.23 52 -21.46 52 -32 52 C-32 46.06 -32 40.12 -32 34 C-21.77 34 -11.54 34 -1 34 C-1.01160156 31.62941406 -1.02320312 29.25882813 -1.03515625 26.81640625 C-1.04294696 24.52954238 -1.04902364 22.24267996 -1.05493164 19.95581055 C-1.05997157 18.36205386 -1.0668035 16.76830181 -1.07543945 15.17456055 C-1.08751999 12.88849747 -1.09323155 10.60249533 -1.09765625 8.31640625 C-1.10281754 7.59973282 -1.10797882 6.88305939 -1.11329651 6.14466858 C-1.11349263 4.42936328 -1.06192007 2.71418734 -1 1 C-0.67 0.67 -0.34 0.34 0 0 Z " fill="#FFFFFF" transform="translate(125,67)"/>
<path d="M0 0 C1.80078125 1.15625 1.80078125 1.15625 2.92578125 3.96875 C2.80078125 7.15625 2.80078125 7.15625 0.53515625 9.8359375 C-4.09521954 13.45908721 -9.47371786 12.69290798 -15.07421875 12.46875 C-16.14414063 12.44619141 -17.2140625 12.42363281 -18.31640625 12.40039062 C-20.94546282 12.34170633 -23.57160457 12.2596618 -26.19921875 12.15625 C-24.01717819 6.0301455 -20.42731183 3.37539527 -14.88671875 0.34375 C-9.8991674 -1.2624106 -4.98888288 -1.91402967 0 0 Z " fill="#FFFFFF" transform="translate(120.19921875,86.84375)"/>
</svg>
