<?xml version="1.0" encoding="UTF-8"?>
<svg version="1.1" xmlns="http://www.w3.org/2000/svg" width="200" height="200">
<path d="M0 0 C0.87696533 0.00757324 1.75393066 0.01514648 2.6574707 0.02294922 C14.71450772 0.3289824 23.84184802 4.88494709 32.8125 12.8125 C43.11637109 24.50878611 47.06244783 35.82943429 46.30419922 51.46972656 C45.47523264 60.5725476 41.65040172 68.30973178 36.125 75.4375 C37.66143852 79.11819887 39.90650945 81.42525204 42.75 84.1875 C43.56726563 84.98671875 44.38453125 85.7859375 45.2265625 86.609375 C45.85304688 87.21265625 46.47953125 87.8159375 47.125 88.4375 C48.115 88.1075 49.105 87.7775 50.125 87.4375 C56.53965953 86.91170824 58.77684434 87.60466879 64.125 91.4375 C65.88215843 93.03004374 67.59674546 94.67061365 69.26953125 96.3515625 C70.19314453 97.27710938 71.11675781 98.20265625 72.06835938 99.15625 C72.53910889 99.63320312 73.0098584 100.11015625 73.49487305 100.6015625 C74.94587282 102.07097909 76.40487774 103.53207536 77.86523438 104.9921875 C86.275674 113.45582035 86.275674 113.45582035 86.4375 119.75 C86.41196011 123.64738733 86.29920634 125.1471561 84.25 128.5625 C81.12838412 131.31686695 79.10345795 131.7088951 75 131.9375 C74.08992188 132.0096875 73.17984375 132.081875 72.2421875 132.15625 C67.379953 131.03513327 64.62716619 127.86267788 61.125 124.4375 C60.39941895 123.74285645 59.67383789 123.04821289 58.92626953 122.33251953 C56.67867026 120.15969266 54.4614787 117.95953881 52.25 115.75 C51.49203125 115.00427734 50.7340625 114.25855469 49.953125 113.49023438 C48.86644531 112.40645508 48.86644531 112.40645508 47.7578125 111.30078125 C47.10699707 110.65407471 46.45618164 110.00736816 45.78564453 109.34106445 C41.80866723 104.7823329 41.84725558 101.27013287 42.125 95.4375 C42.62 93.9525 42.62 93.9525 43.125 92.4375 C39.495 88.8075 35.865 85.1775 32.125 81.4375 C28.68046086 82.81531565 26.02982746 84.01264144 22.9375 85.875 C11.36610716 92.29721803 -0.94331888 93.39237928 -13.75 89.8125 C-26.39044405 85.41784931 -36.09182658 76.28434977 -42.125 64.375 C-46.84095994 52.86250957 -47.0230166 39.917006 -42.71484375 28.3125 C-37.31197991 16.51348816 -28.97521336 7.58852991 -16.90576172 2.62817383 C-11.20573535 0.51957666 -6.05294184 -0.07358135 0 0 Z M-31.625 18.125 C-40.00827284 28.24341536 -41.74524748 39.56766604 -41.08837891 52.26171875 C-40.06888967 62.65724287 -34.45415392 70.62366781 -26.875 77.4375 C-16.44921611 85.66654682 -6.10977937 88.4784377 7.125 87.4375 C18.35323952 85.136404 28.6683693 79.05498872 35.125 69.4375 C41.2186467 58.93062728 43.74267457 48.87166937 41.66015625 36.7265625 C38.71590429 25.68126226 32.00859758 15.49864561 22.0859375 9.64453125 C3.67568124 0.21543406 -17.07582662 2.79192719 -31.625 18.125 Z " fill="#FFFFFF" transform="translate(79.875,34.5625)"/>
</svg>
