<?xml version="1.0" encoding="UTF-8"?>
<svg version="1.1" xmlns="http://www.w3.org/2000/svg" width="128" height="128">
<path d="M0 0 C-2.38994618 2.58910836 -4.88622412 4.66368988 -7.75 6.6875 C-17.76590249 14.15288457 -25.57805958 24.96137448 -27.75 37.47265625 C-29.45147762 54.67353154 -25.59663481 67.23810068 -15.75 81.1875 C-6.33646599 90.81497796 6.5370212 96.98937425 20 98 C38.63820917 98.17060146 51.82061058 90.61856434 65 78 C66.14653522 80.81799019 65.98197043 82.06083021 65.1015625 85.03125 C57.86157913 102.03946491 46.84067967 114.89837877 30 123 C12.24786733 129.57486395 -6.86513568 130.70379557 -24.37548828 122.69213867 C-31.3266021 119.31772974 -37.34126119 115.24323701 -43 110 C-44.04414062 109.03707031 -44.04414062 109.03707031 -45.109375 108.0546875 C-56.60841348 96.33279944 -61.90755776 80.1447359 -62.375 64 C-61.86105853 45.58033763 -54.87129297 29.31766231 -41.46875 16.59765625 C-30.40840654 7.04698611 -15.07283839 -0.75509402 0 0 Z M-42 23 C-52.57674454 35.18311018 -58.85906198 50.49816746 -58.34375 66.7734375 C-56.48208106 84.24773915 -49.29767899 99.64325127 -35.58984375 110.99609375 C-21.69584651 121.23493482 -5.19042098 126.28941345 12.05078125 123.69091797 C28.543828 120.65088605 42.69941182 112.61836725 52.6875 98.9375 C53.80697212 97.30203873 54.91715933 95.65994201 56 94 C52.59491038 94 51.19403626 94.78444034 48.1875 96.3125 C33.93844484 102.9557681 18.87929673 103.7617773 3.953125 99.03515625 C-10.56245644 93.45079396 -21.47243909 83.73486287 -27.96875 69.53515625 C-33.38189192 56.22784904 -34.14003804 41.59928489 -29.26953125 27.96875 C-26.10609574 20.57117774 -22.45590504 13.93730843 -17 8 C-25.91136428 8 -35.99705817 17.1355876 -42 23 Z " fill="#FFFFFF" transform="translate(62,0)"/>
<path d="M0 0 C0.66 0 1.32 0 2 0 C3.5078125 2.1875 3.5078125 2.1875 5.125 5 C5.66382812 5.928125 6.20265625 6.85625 6.7578125 7.8125 C7.16773437 8.534375 7.57765625 9.25625 8 10 C15.04207705 9.2812193 15.04207705 9.2812193 22 8 C20.92105084 11.33493376 19.65227407 13.45667746 17.25 15.9375 C14.61363022 18.77244393 14.61363022 18.77244393 15.4375 21.9375 C17.18862517 25.36970533 19.01734 28.69556666 21 32 C15.94744036 31.36843005 11.70406799 29.86540627 7 28 C6.44570312 28.6496875 5.89140625 29.299375 5.3203125 29.96875 C4.59585938 30.8040625 3.87140625 31.639375 3.125 32.5 C2.40570313 33.3353125 1.68640625 34.170625 0.9453125 35.03125 C-0.01761719 36.00578125 -0.01761719 36.00578125 -1 37 C-1.66 37 -2.32 37 -3 37 C-2.67 32.38 -2.34 27.76 -2 23 C-4.10375 22.3503125 -4.10375 22.3503125 -6.25 21.6875 C-9.71855963 20.61632717 -12.18675674 19.30350423 -15 17 C-13.23050388 16.49528803 -11.45934777 15.99639315 -9.6875 15.5 C-8.70136719 15.2215625 -7.71523438 14.943125 -6.69921875 14.65625 C-4 14 -4 14 -1 14 C-0.67 9.38 -0.34 4.76 0 0 Z " fill="#FFFFFF" transform="translate(63,24)"/>
<path d="M0 0 C0.66 0 1.32 0 2 0 C1.8453125 1.6396875 1.8453125 1.6396875 1.6875 3.3125 C1.790625 4.529375 1.89375 5.74625 2 7 C4.3726974 9.00864359 4.3726974 9.00864359 7 10 C6.67 10.66 6.34 11.32 6 12 C4.02 12 2.04 12 0 12 C-0.33 14.64 -0.66 17.28 -1 20 C-3.50037734 17.82575883 -4.43628586 16.26954202 -5 13 C-5.99 13.495 -5.99 13.495 -7 14 C-8.99960012 14.039992 -11.00047242 14.04346799 -13 14 C-12.29875 13.319375 -11.5975 12.63875 -10.875 11.9375 C-8.53946058 9.02402192 -8.53946058 9.02402192 -9.75 5.1875 C-10.1625 4.135625 -10.575 3.08375 -11 2 C-9.741875 2.226875 -8.48375 2.45375 -7.1875 2.6875 C-3.89580084 3.22006708 -3.89580084 3.22006708 -1.125 1.5625 C-0.75375 1.046875 -0.3825 0.53125 0 0 Z " fill="#FFFFFF" transform="translate(106,46)"/>
</svg>
