<?xml version="1.0" encoding="UTF-8"?>
<svg version="1.1" xmlns="http://www.w3.org/2000/svg" width="50" height="50">
<path d="M0 0 C1.78409802 3.06246747 2.22880021 5.22079273 2.125 8.75 C2.10695313 9.54921875 2.08890625 10.3484375 2.0703125 11.171875 C2.03550781 12.07679687 2.03550781 12.07679687 2 13 C3.15628906 13.29003906 3.15628906 13.29003906 4.3359375 13.5859375 C5.33882812 13.84632812 6.34171875 14.10671875 7.375 14.375 C8.37273438 14.63023438 9.37046875 14.88546875 10.3984375 15.1484375 C13 16 13 16 15 18 C16.99172182 18.69100553 18.99161804 19.35902703 21 20 C22.96120967 21.96120967 22.274594 25.52144468 22.3125 28.1875 C22.36857422 30.15783203 22.36857422 30.15783203 22.42578125 32.16796875 C21.9374704 36.5627664 20.78482035 38.61305633 18 42 C13.75194557 44.83203629 10.11888731 44.3302592 5.125 44.3125 C3.77728516 44.33666992 3.77728516 44.33666992 2.40234375 44.36132812 C-2.53186176 44.36497229 -6.03426507 44.27740224 -10 41 C-13.69794895 35.89938076 -13.76612316 30.08918667 -13 24 C-12.34 23.34 -11.68 22.68 -11 22 C-10.68042037 20.13126286 -10.68042037 20.13126286 -10.69140625 18.0078125 C-10.66626953 17.22019531 -10.64113281 16.43257812 -10.61523438 15.62109375 C-10.58024476 13.96491853 -10.54895883 12.30866068 -10.52148438 10.65234375 C-10.40376906 7.13236859 -10.31396729 4.61477427 -8.6953125 1.4453125 C-5.9991214 -0.8532836 -3.39082826 -0.25591157 0 0 Z M-4 2 C-4.99 2.66 -5.98 3.32 -7 4 C-7.41678607 6.51896074 -7.41678607 6.51896074 -7.29296875 9.4453125 C-7.28330078 10.52167969 -7.27363281 11.59804688 -7.26367188 12.70703125 C-7.23853516 13.83496094 -7.21339844 14.96289062 -7.1875 16.125 C-7.17396484 17.26066406 -7.16042969 18.39632813 -7.14648438 19.56640625 C-7.11104319 22.37807387 -7.06163517 25.18880417 -7 28 C-7.66 28.33 -8.32 28.66 -9 29 C-9.33 27.68 -9.66 26.36 -10 25 C-11.37410097 29.53453321 -10.74780825 32.63047939 -9 37 C-4.4597774 41.42380664 -0.82325602 42.16489809 5.375 42.25 C6.49648438 42.27578125 7.61796875 42.3015625 8.7734375 42.328125 C12.35435126 41.96396428 14.14851793 41.1562444 17 39 C19.49118953 35.2632157 19.2065226 33.25548181 19.125 28.8125 C19.10695313 27.54019531 19.08890625 26.26789062 19.0703125 24.95703125 C19.04710938 23.98121094 19.02390625 23.00539063 19 22 C16.10813214 20.66695302 16.10813214 20.66695302 13.8125 21.9375 C13.214375 22.288125 12.61625 22.63875 12 23 C12 21.68 12 20.36 12 19 C10.68 19 9.36 19 8 19 C8 20.32 8 21.64 8 23 C6 22 6 22 4.875 18.9375 C4.58625 17.968125 4.2975 16.99875 4 16 C3.34 16 2.68 16 2 16 C1.67 17.32 1.34 18.64 1 20 C0.34 19.67 -0.32 19.34 -1 19 C-0.96519531 17.94039062 -0.93039063 16.88078125 -0.89453125 15.7890625 C-0.86639601 14.40105748 -0.83909557 13.01303537 -0.8125 11.625 C-0.78736328 10.92632812 -0.76222656 10.22765625 -0.73632812 9.5078125 C-0.67021439 7.23252323 -0.67021439 7.23252323 -1 4 C-1.99 3.34 -2.98 2.68 -4 2 Z " fill="#FFFFFF" transform="translate(18,6)"/>
<path d="M0 0 C2.93453261 0.36681658 3.86437246 0.86437246 6 3 C6 3.99 6 4.98 6 6 C6.61875 6.12375 7.2375 6.2475 7.875 6.375 C10 7 10 7 12 9 C12 10.32 12 11.64 12 13 C8.78571429 16 8.78571429 16 6 16 C5.7525 16.61875 5.505 17.2375 5.25 17.875 C3.79371361 20.35068687 2.62187494 20.95125002 0 22 C-1.37562854 20.71034824 -2.70766393 19.37310707 -4 18 C-4 17.34 -4 16.68 -4 16 C-4.61875 15.7525 -5.2375 15.505 -5.875 15.25 C-8.35068687 13.79371361 -8.95125002 12.62187494 -10 10 C-8.71034824 8.62437146 -7.37310707 7.29233607 -6 6 C-5.34 6 -4.68 6 -4 6 C-3.71125 5.38125 -3.4225 4.7625 -3.125 4.125 C-2 2 -2 2 0 0 Z M-2 7 C-1 9 -1 9 -1 9 Z M3 7 C3 7.66 3 8.32 3 9 C3.66 9 4.32 9 5 9 C5 8.34 5 7.68 5 7 C4.34 7 3.68 7 3 7 Z M0 9 C0 9.99 0 10.98 0 12 C0.99 12 1.98 12 3 12 C3 11.01 3 10.02 3 9 C2.01 9 1.02 9 0 9 Z " fill="#FFFFFF" transform="translate(35,1)"/>
</svg>
