<?xml version="1.0" encoding="UTF-8"?>
<svg version="1.1" xmlns="http://www.w3.org/2000/svg" width="25" height="25">
<path d="M0 0 C5.078125 2.83203125 5.078125 2.83203125 7 4 C7.73089844 4.39316406 8.46179688 4.78632812 9.21484375 5.19140625 C11 7 11 7 11.42578125 10.3203125 C11.38839844 11.57585938 11.35101562 12.83140625 11.3125 14.125 C11.28800781 15.38570312 11.26351563 16.64640625 11.23828125 17.9453125 C11 21 11 21 10 22 C8.5112814 22.08669432 7.018555 22.10703494 5.52734375 22.09765625 C4.62822266 22.09443359 3.72910156 22.09121094 2.80273438 22.08789062 C1.85720703 22.07951172 0.91167969 22.07113281 -0.0625 22.0625 C-1.01189453 22.05798828 -1.96128906 22.05347656 -2.93945312 22.04882812 C-5.29303065 22.0370011 -7.64648477 22.02052025 -10 22 C-10.59719323 16.84423178 -10.89627781 12.13514465 -10 7 C-7.11806655 3.69336057 -3.96369395 1.8190524 0 0 Z M-2 11 C-2 13.97 -2 16.94 -2 20 C-0.35 19.67 1.3 19.34 3 19 C3 16.36 3 13.72 3 11 C1.35 11 -0.3 11 -2 11 Z " fill="#EEEFEF" transform="translate(12,1)"/>
</svg>
