<?xml version="1.0" encoding="UTF-8"?>
<svg version="1.1" xmlns="http://www.w3.org/2000/svg" width="200" height="200">
<path d="M0 0 C-0.02997826 0.89416626 -0.02997826 0.89416626 -0.06056213 1.80639648 C-0.26035886 8.03563655 -0.39568563 14.26396117 -0.49438477 20.49560547 C-0.53952384 22.81792187 -0.60085326 25.13998418 -0.67895508 27.46142578 C-0.78869894 30.80825505 -0.83928939 34.15169406 -0.87890625 37.5 C-0.92535782 38.5305249 -0.97180939 39.5610498 -1.01966858 40.62280273 C-1.02274153 45.05476976 -0.91302599 47.87031962 1.93386841 51.39276123 C4.20433543 53.43399326 6.50704356 55.24048416 9 57 C10.23057371 57.94087089 11.46005826 58.88317184 12.6875 59.828125 C14.35968901 61.05985397 16.03967685 62.27830222 17.73046875 63.484375 C21.81341608 66.5102172 21.81341608 66.5102172 22.875 69.296875 C22.91625 69.85890625 22.9575 70.4209375 23 71 C18.1293556 70.54479959 15.11129041 68.10969048 11.4375 65.125 C10.31124139 64.23171602 9.18494032 63.33848557 8.05859375 62.4453125 C6.54458984 61.23488281 6.54458984 61.23488281 5 60 C3.68 59.01 2.36 58.02 1 57 C0.67 64.59 0.34 72.18 0 80 C-0.99 80.495 -0.99 80.495 -2 81 C-6.14752953 77.47018764 -10.1780051 73.88266149 -14 70 C-15.01126953 69.00806641 -15.01126953 69.00806641 -16.04296875 67.99609375 C-18 66 -18 66 -19.61328125 63.97265625 C-23.72440076 59.35119087 -27.36199882 58.57091928 -33.34057617 58.16772461 C-37.23159376 58.01376991 -41.10583058 57.97252098 -45 58 C-44.92668457 56.93676514 -44.85336914 55.87353027 -44.77783203 54.77807617 C-44.5220396 50.7858159 -44.36293269 46.794251 -44.23095703 42.79614258 C-44.16106846 41.07549891 -44.0658966 39.35567141 -43.94384766 37.63793945 C-43.02280397 27.89097479 -43.02280397 27.89097479 -46.41931152 19.08990479 C-50.17491201 15.36778758 -54.42525778 12.61303323 -59 10 C-58.67 8.68 -58.34 7.36 -58 6 C-52.93770148 7.56063153 -49.43377983 10.66780207 -45.4375 14 C-44.12650517 15.08672885 -42.8127854 16.17018051 -41.49609375 17.25 C-40.92044678 17.72953125 -40.3447998 18.2090625 -39.75170898 18.703125 C-36.41940659 21.17018986 -34.48152966 21.99044983 -30.2578125 22.07421875 C-24.77880825 21.20503906 -21.63526558 17.63434989 -17.875 13.8125 C-17.19824219 13.15185547 -16.52148438 12.49121094 -15.82421875 11.81054688 C-13.27091896 9.30910327 -10.73852778 6.79989358 -8.31347656 4.17333984 C-4.40625918 0 -4.40625918 0 0 0 Z " fill="#FFCD05" transform="translate(123,60)"/>
</svg>
